<svg xmlns="http://www.w3.org/2000/svg" width="108.276" height="109.425" viewBox="0 0 108.276 109.425"><defs><style>.a{fill:#b3890e;}</style></defs><g transform="translate(-888.74 113.156)"><path class="a" d="M956.47-35.378c-4.222.6-6.614-1.05-7.423-5.07-3.292-.7-4.675-2.078-5.356-5.356-3.532-.73-5.4-2.879-5.234-6.064a5.556,5.556,0,0,1,1.785-3.714q3.663-3.653,7.315-7.317a.1.1,0,0,0,.025-.062L936.989-73.617l-3.151,3.244c2.778,1.084,4.6,3.648,6.66,5.873a5.117,5.117,0,0,1-.354,6.984q-1.8,1.9-3.7,3.7c-.462.438-.448.748-.213,1.324a7.731,7.731,0,0,1,.623,2.656c.075,3,.055,6.009.01,9.013a2.316,2.316,0,0,0,.765,1.836q16.744,16.7,33.463,33.423a8.054,8.054,0,0,0,1.07.757l-2.836,2.552c-.135-.126-.406-.363-.66-.617q-17.117-17.112-34.245-34.214a3.463,3.463,0,0,1-1.12-2.742q.1-4.783-.008-9.569a3.007,3.007,0,0,0-.657-1.9c-5.047-5.127-10.153-10.2-15.238-15.277-1.8,1.178-1.938,3.578-.276,5.265q3.826,3.885,7.715,7.707a4.85,4.85,0,0,0,1.029.616l-2.8,2.752c-2.488-2.49-5-5.007-7.514-7.521a2.339,2.339,0,0,0-3.656.02c-2.553,2.536-5.086,5.091-7.638,7.627a3.924,3.924,0,0,0-1.211,2.887,9.952,9.952,0,0,0,.037,2.328,6.009,6.009,0,0,0,1.13,2.669c2.828,2.991,5.784,5.859,8.7,8.768a5.472,5.472,0,0,0,3.911,1.594c1.186.023,2.385-.091,3.557.041a3.63,3.63,0,0,1,2.046.814q12.96,12.849,25.835,25.784c.18.18.339.381.536.6L946.03-1.947a4.83,4.83,0,0,0-.617-1.01Q933.155-15.25,920.886-27.532a2.391,2.391,0,0,0-1.939-.79,22.743,22.743,0,0,1-3.773-.1,8.587,8.587,0,0,1-4.941-2.593c-1.249.879-2.168,1.831-1.856,3.485.095.5-.051,1.046.027,1.553.277,1.8-.5,2.765-2.186,3.426-3.647,1.433-7.222,3.048-10.827,4.587-1.405.6-1.848.51-2.955-.592-.946-.942-1.869-1.909-2.841-2.824a2.088,2.088,0,0,1-.546-2.6q2.576-5.957,5.116-11.93a1.894,1.894,0,0,1,1.979-1.3,23.28,23.28,0,0,1,2.556.03,3.119,3.119,0,0,0,3.276-1.541c-.818-1.567-1.945-2.911-2.22-4.411-.695-3.8-.633-7.5,2.742-10.378,2.166-1.848,4.024-4.053,6.1-6.008,1.134-1.066,2.443-1.945,3.874-3.066-.734-3.175.991-5.724,3.526-7.928a1.808,1.808,0,0,1,2.753.169c1.614,1.586,3.2,3.2,4.805,4.794.259.258.529.5.742.706l2.4-2.407c-2.187-.6-3.5-2.506-5.091-4.058-2.7-2.645-5.361-5.34-8.033-8.019-2.627-2.634-2.647-5.7-.041-8.31q10.5-10.511,21.01-21.01c2.565-2.562,5.663-2.563,8.233,0q5.2,5.184,10.387,10.387a5.372,5.372,0,0,1-.007,8.157c-2.166,2.179-4.345,4.345-6.44,6.439l8.124,8.118c.2-.156.532-.429.875-.692a6.993,6.993,0,0,1,9.169.422c4.482,4.383,8.891,8.84,13.305,13.291a4.935,4.935,0,0,1,1.43,3.624c-.015,3.413.017,6.826-.019,10.238a3.056,3.056,0,0,0,.98,2.363q7.737,7.686,15.439,15.407a9.03,9.03,0,0,0,1.042.771l-3.006,2.774a5.362,5.362,0,0,0-.687-1.058q-7.652-7.692-15.346-15.343a6.139,6.139,0,0,1-1.986-4.747c.072-3.263.072-6.53-.021-9.791a3.475,3.475,0,0,0-.874-2.144c-4.066-4.168-8.2-8.27-12.327-12.381-1.786-1.78-3.737-1.729-5.558.022-2.352,2.261-4.751,4.473-7.111,6.689,1.54,1.707,4.55,1.416,6.021-.07.835-.844,1.658-1.7,2.527-2.508a1.761,1.761,0,0,1,2.917.369c1.784,2.9,3.516,5.824,5.315,8.817l-3.076,1.874L959.762-64.4l-3.826,2.784.923,2.757a5.743,5.743,0,0,1,5.236,5.33,5.789,5.789,0,0,1,5.348,5.359,5.806,5.806,0,0,1,4.464,2.708,5.5,5.5,0,0,1-.809,6.847c-1.308,1.354-2.7,2.628-4.122,4L996.926-4.676l-2.761,2.762a6.017,6.017,0,0,0-.683-1.057q-14.189-14.217-28.389-28.424a1.471,1.471,0,0,0-1.725-.492,5.426,5.426,0,0,1-6.488-2.746C956.743-34.888,956.6-35.14,956.47-35.378Zm-11.781-51.6L931.563-100.1l-9.492,9.493L935.2-77.473ZM934.229-103.3l13.563,13.568c.97-1,2.039-2.075,3.063-3.187a1.711,1.711,0,0,0-.034-2.576q-5.393-5.444-10.836-10.837a1.7,1.7,0,0,0-2.572-.053C936.3-105.359,935.237-104.282,934.229-103.3Zm-1.888,28.945-13.52-13.5c-.92.932-1.977,1.969-2.993,3.044a1.7,1.7,0,0,0-.033,2.572q5.43,5.486,10.914,10.917a1.633,1.633,0,0,0,2.4.116C930.289-72.258,931.378-73.41,932.341-74.358ZM904.617-36.5c-1.381,2.779-3.763,3.181-6.431,2.85a1.223,1.223,0,0,0-1.464.925c-1.16,2.841-2.364,5.667-3.646,8.456a1.231,1.231,0,0,0,.439,1.691c.554.484.89,1.183,1.923.7,2.75-1.277,5.553-2.442,8.36-3.588.8-.327,1.182-.733,1.043-1.623a5.877,5.877,0,0,1,2.485-6.276c.081-.055.117-.176.179-.276Zm35.11-39.933,7.8,7.795,4.282-4.022-7.864-7.94ZM927.171-62.4l6.371,6.405c1.236-1.239,2.587-2.559,3.9-3.919a1.727,1.727,0,0,0,.007-2.657q-1.809-1.884-3.694-3.694a1.727,1.727,0,0,0-2.657.018C929.73-64.942,928.4-63.6,927.171-62.4Zm24.059,1.578a10.9,10.9,0,0,0-1.715,1.1c-2.249,2.194-4.464,4.424-6.677,6.657-1.029,1.038-1.084,2.165-.194,3.023a1.964,1.964,0,0,0,2.948-.215c1.27-1.24,2.514-2.506,3.768-3.761,1.045-1.046,2.1-2.079,3.127-3.147a1.694,1.694,0,0,0,.382-2.217A8.887,8.887,0,0,0,951.231-60.821Zm7.488,7.506a8.632,8.632,0,0,0-1.487-1.671,1.751,1.751,0,0,0-2.289.5q-3.422,3.4-6.822,6.825a1.944,1.944,0,0,0-.152,2.945,1.953,1.953,0,0,0,2.947-.179q3.394-3.352,6.737-6.753A10.623,10.623,0,0,0,958.719-53.315Zm-4.175,14.758a8.017,8.017,0,0,0,1.608-.912q3.5-3.419,6.933-6.914a1.926,1.926,0,0,0,.135-2.873,1.954,1.954,0,0,0-2.954.134c-1.092,1.058-2.154,2.147-3.229,3.223-1.232,1.233-2.475,2.456-3.689,3.706a1.694,1.694,0,0,0-.4,2.22A8.533,8.533,0,0,0,954.544-38.557Zm12.81-6.145a5.231,5.231,0,0,0-1.391.63c-1.915,1.855-3.82,3.724-5.658,5.655a1.837,1.837,0,0,0,.139,2.609,1.808,1.808,0,0,0,2.521.156c1.964-1.856,3.9-3.753,5.709-5.755a2.345,2.345,0,0,0,.156-2.025C968.615-43.973,967.853-44.3,967.353-44.7Z" transform="translate(-0.053 -1.817)"/><path class="a" d="M927.873,216.866v3.559h-1.025q-15.912,0-31.823,0a6.253,6.253,0,0,1-6.255-5.475,6.162,6.162,0,0,1,5.089-6.878,39.539,39.539,0,0,1,5.5-.045v3.5c-1.453,0-2.89-.044-4.323.012a2.711,2.711,0,0,0-2.71,2.684,2.758,2.758,0,0,0,2.659,2.633c.295.024.593.01.89.01h32Z" transform="translate(0 -225.614)"/><path class="a" d="M1126.955-82.006l-2.2-2.3,10.571-10.575,2.293,2.2Z" transform="translate(-165.833 -12.842)"/><path class="a" d="M1141.783-58.965l2.139,2.229-10.574,10.571-2.052-2.3Z" transform="translate(-170.427 -38.076)"/><path class="a" d="M1209.122,37.353h-3.1a16.133,16.133,0,0,0-2.1-3.675c-.9-.9-2.288-1.318-3.621-2.033V28.652C1204.431,27.792,1209.3,32.558,1209.122,37.353Z" transform="translate(-218.915 -99.568)"/><path class="a" d="M914.43,32.1l-8.939,5.367-1.865-3.093,8.937-5.367Z" transform="translate(-10.46 -99.888)"/><path class="a" d="M928.572-34.8l5.376,8.94L930.855-24l-5.373-8.931Z" transform="translate(-25.816 -55.056)"/><path class="a" d="M1112.435-106.1l7.1-7.054,2.313,2.338-7.088,7.071Z" transform="translate(-157.176)"/><path class="a" d="M894.318-1.65c2.97.6,5.753,1.155,8.534,1.719a2.144,2.144,0,0,1,.387.186l-.672,3.433L893.64,1.905Z" transform="translate(-3.443 -78.348)"/><path class="a" d="M1224.284,14.092v-3.41c3.2-.506,7.3,2.981,7,6.941h-3.443A3.817,3.817,0,0,0,1224.284,14.092Z" transform="translate(-235.764 -86.978)"/><path class="a" d="M970.737,181.582l1.137-3.422,5.368,1.786-1.115,3.408Z" transform="translate(-57.614 -204.688)"/><path class="a" d="M980.531,207.645l-2.258,2.325-3.514-3.547,2.271-2.309Z" transform="translate(-60.44 -222.924)"/><path class="a" d="M948.324,215.958l-3.51-3.473,2.286-2.26,3.541,3.507Z" transform="translate(-39.4 -227.218)"/></g></svg>