<svg xmlns="http://www.w3.org/2000/svg" width="105.565" height="109.097" viewBox="0 0 105.565 109.097"><defs><style>.a{fill:#b3890e;}</style></defs><g transform="translate(-180.217 155.694)"><path class="a" d="M193.929,51.949a45.239,45.239,0,0,1-12.793-27.285c-.225-2.1-.54-4.2-.828-6.3-.334-2.434.211-4.544,2.347-5.974a5.329,5.329,0,0,1,6-.152,5.736,5.736,0,0,1,2.724,4.488c.648,4.625,1.552,9.193,4.073,13.223,1.291,2.064,2.806,3.988,4.22,5.975l.37-.215c-.362-1.756-.727-3.511-1.083-5.268a4.829,4.829,0,0,1,1.7-5.191,4.432,4.432,0,0,1,5.006-.54,8.7,8.7,0,0,1,2.149,1.933,5.5,5.5,0,0,1,.757,1.389,20.981,20.981,0,0,0,4.259,6.185c3.806,3.7,5.45,8.45,5.586,13.727.029,1.134,0,2.269,0,3.38,1.682.716,1.859.988,1.859,2.818q0,6.592,0,13.185c0,1.828-.552,2.394-2.338,2.395q-10.97,0-21.941,0c-1.764,0-2.342-.554-2.345-2.272-.007-4.547-.012-9.093.009-13.639A13.833,13.833,0,0,1,193.929,51.949Zm20.707-.418c0-1.512.039-2.9-.008-4.294a14.677,14.677,0,0,0-4.715-10.719,18.363,18.363,0,0,1-4.245-6.037c-.272-.581-.567-1.153-.876-1.716-.332-.6-.773-1.069-1.546-.774-.757.289-.811.917-.69,1.6a23.309,23.309,0,0,0,2.819,8.541c.618.99,1.066,2.086,1.6,3.127a1.89,1.89,0,0,1-2.727,2.574,32.023,32.023,0,0,1-15.135-19.6c-.673-2.429-.978-4.959-1.5-7.433a1.856,1.856,0,0,0-2.213-1.607,1.959,1.959,0,0,0-1.466,2.336q.529,3.934,1.035,7.87A40.677,40.677,0,0,0,198.127,50.84a2.735,2.735,0,0,0,1.676.662c4.546.053,9.092.03,13.639.03Zm-17.258,3.685V66h19.2V55.216Z" transform="translate(0 -116.323)"/><path class="a" d="M422.29,52.126a15.128,15.128,0,0,1,.265,1.919c.02,4.509.015,9.018.009,13.527,0,1.8-.564,2.338-2.395,2.339q-10.915,0-21.83,0c-1.871,0-2.4-.54-2.4-2.445q0-6.65,0-13.3c0-1.669.244-2.017,1.686-2.538.19-2.412.221-4.807.595-7.147a19.356,19.356,0,0,1,6.361-11.364A8.984,8.984,0,0,0,406.212,31c.737-1.275,1.326-2.635,2.03-3.931A4.793,4.793,0,0,1,414,24.63a4.7,4.7,0,0,1,3.318,5.377c-.131,1.01-.365,2.006-.561,3.006a15.463,15.463,0,0,0-.394,3c.748-.871,1.531-1.714,2.238-2.616a30.343,30.343,0,0,0,6.005-15.091c.08-.6.168-1.2.279-1.792a5.6,5.6,0,0,1,6.358-4.807,5.376,5.376,0,0,1,4.673,6.087,128.553,128.553,0,0,1-2.4,14.864A41.867,41.867,0,0,1,422.29,52.126Zm-20.655-.534c.116.05.184.1.251.1,5,.01,10,.024,15,0a1.635,1.635,0,0,0,.975-.44,39.968,39.968,0,0,0,12.625-21.57c.839-3.906,1.189-7.917,1.77-11.879a1.976,1.976,0,0,0-1.468-2.433,1.919,1.919,0,0,0-2.232,1.741c-.221,1.072-.372,2.159-.551,3.239a32.556,32.556,0,0,1-15.965,23.625,1.9,1.9,0,0,1-2.8-2.552,47.838,47.838,0,0,0,2.669-5.376,51.646,51.646,0,0,0,1.734-6.641,1.417,1.417,0,0,0-.722-1.183,1.59,1.59,0,0,0-1.312.482,7.061,7.061,0,0,0-.872,1.577c-1.139,2.1-1.852,4.47-4,5.935a9.372,9.372,0,0,0-1.914,2.082C401.784,42.227,401.218,46.765,401.636,51.591Zm-2.008,14.6h19.2V55.415h-19.2Z" transform="translate(-150.184 -116.509)"/><path class="a" d="M303.911-108.076c4.055,0,8.11.019,12.164-.015a2.829,2.829,0,0,1,2.222.881c2.172,2.221,4.392,4.4,6.581,6.6,1.109,1.117,1.175,1.861.221,3.079Q315.357-85.1,305.59-72.687c-1.088,1.382-2.318,1.385-3.388.025Q292.439-85.074,282.7-97.5c-1-1.273-.939-1.978.23-3.154,2.191-2.2,4.359-4.431,6.615-6.566a3.226,3.226,0,0,1,1.98-.817C295.649-108.113,299.78-108.076,303.911-108.076ZM288.3-100.9h31.124c-1.169-1.143-2.145-2.149-3.187-3.081a1.939,1.939,0,0,0-1.188-.438q-11.185-.038-22.372,0a1.785,1.785,0,0,0-1.1.369C290.507-103.1,289.5-102.068,288.3-100.9Zm10.742,3.783,4.7,16.415.262,0,4.693-16.418Zm-11.386-.008,11.479,14.6.2-.129-4.145-14.469Zm20.756,14.445.171.188L320.07-97.109h-7.527Z" transform="translate(-70.856 -33.141)"/><path class="a" d="M274.78-129.309l-2.329,2.411-5.107-5.123,2.534-2.2Z" transform="translate(-60.657 -14.951)"/><path class="a" d="M423.648-132.268l-5.081,5.083-2.286-2.412,5.024-5.02Z" transform="translate(-164.346 -14.674)"/><path class="a" d="M287.537-1.147,290,1.241l-5.061,5.05-2.422-2.4Z" transform="translate(-71.22 -107.594)"/><path class="a" d="M406.046,6.412l-5-4.994,2.481-2.329L408.421,4Z" transform="translate(-153.739 -107.758)"/><path class="a" d="M348.176-148.559v-7.135H351.7v7.135Z" transform="translate(-116.932 0)"/><path class="a" d="M253.612-53.876v3.5h-7.135v-3.5Z" transform="translate(-46.13 -70.885)"/><path class="a" d="M438.018-50.434v-3.481h7.175v3.481Z" transform="translate(-179.479 -70.858)"/><path class="a" d="M348.272,23.9h3.5v7.133h-3.5Z" transform="translate(-116.998 -125.032)"/></g></svg>