<svg xmlns="http://www.w3.org/2000/svg" width="109.184" height="109.261" viewBox="0 0 109.184 109.261"><defs><style>.a{fill:#b3890e;}</style></defs><g transform="translate(-749.398 -392.933)"><path class="a" d="M858.582,451.58c-.341,2.242-.59,4.5-1.04,6.722a54.614,54.614,0,0,1-76.024,39.011,52.748,52.748,0,0,1-16.436-11.436,54.653,54.653,0,0,1,30.55-92.3c1.571-.255,3.154-.433,4.731-.646h7.251c1.858.251,3.727.437,5.571.764a54.885,54.885,0,0,1,44.357,43.061c.455,2.217.7,4.477,1.041,6.717Zm-106.2-4.085a51.572,51.572,0,1,0,51.452-51.54A51.5,51.5,0,0,0,752.385,447.495Z" transform="translate(0 0)"/><path class="a" d="M881.319,530.822a29.866,29.866,0,0,1-14.951-4.031,1.469,1.469,0,0,0-1.656-.022,29.8,29.8,0,0,1-27.845,1.174,1.977,1.977,0,0,1-1.385-2.44,30.227,30.227,0,0,1,9.143-19.1,25.7,25.7,0,0,1,5.6-4.225,1.85,1.85,0,0,0,1.03-1.791,30.03,30.03,0,0,1,13.031-24.542,1.87,1.87,0,0,1,2.439-.033,30,30,0,0,1,12.929,21.858,17.558,17.558,0,0,1,.161,2.868,1.5,1.5,0,0,0,.9,1.525,25.609,25.609,0,0,1,3.689,2.525c.989.809,1.165,1.626.547,2.372s-1.44.74-2.448.005q-1.119-.816-2.258-1.6c-.332-.229-.68-.324-.8.222-.147.658-.271,1.322-.4,1.984-.113.587.344.8.712,1.07a24.216,24.216,0,0,1,8.866,12.464c.641,1.989.24,2.653-1.794,3.078-8.882,1.852-16.526-.524-22.919-6.878a21.51,21.51,0,0,1-5.07-8.062c-.3-.829-.685-.978-1.4-.582a3.415,3.415,0,0,1-.586.254c-.895.292-1.093.776-.7,1.685,4.383,10.119,12.005,15.834,22.992,17.012a26.077,26.077,0,0,0,13.192-2.2,8.749,8.749,0,0,1,1.391-.532,1.388,1.388,0,0,1,1.705.747,1.4,1.4,0,0,1-.4,1.819,3.219,3.219,0,0,1-.715.455A30.337,30.337,0,0,1,881.319,530.822Zm-4.512-30.16a17.692,17.692,0,0,0-.17-2.442,26.932,26.932,0,0,0-10.044-18.728,1.39,1.39,0,0,0-2.106-.031,26.734,26.734,0,0,0-10.073,18.924c-.149,1.712-.148,1.711,1.5,1.155.73-.246,1.419-.362,1.523-1.448A22.8,22.8,0,0,1,864,483.986c1.22-1.249,1.834-1.272,3.012-.029,5.858,6.182,7.843,13.5,6.238,21.806a22.5,22.5,0,0,1-4.909,10.164c-.469.566-.507.976.131,1.386a5.626,5.626,0,0,1,.7.489c.688.609,1.155.476,1.726-.257A27.636,27.636,0,0,0,876.807,500.662Zm-26.862,24.162a25.906,25.906,0,0,1-5.826-.677c-1.894-.413-2.274-1.084-1.718-2.96a24.181,24.181,0,0,1,26.75-16.93c.924.144,1.316-.123,1.439-1.019.188-1.366.037-1.717-.985-1.9a23.865,23.865,0,0,0-11.381.681c-10.867,3.393-17.325,10.77-19.476,21.945a1.458,1.458,0,0,0,1.073,1.939,27.1,27.1,0,0,0,14.866,1.363,25.664,25.664,0,0,0,7.047-2.367c.285-.148.839-.264.589-.708a6.8,6.8,0,0,0-1.8-1.638c-.4-.336-.809.063-1.181.224A25.562,25.562,0,0,1,849.946,524.824Zm20.574-27.14a20.5,20.5,0,0,0-4.585-10.409c-.394-.467-.641-.208-.922.13a20.437,20.437,0,0,0-4.453,10.1c-.119.747.156.843.81.748a28.085,28.085,0,0,1,4.025-.322,32.46,32.46,0,0,1,4.345.321C870.143,498.3,870.559,498.4,870.52,497.685Zm-20.913,23.947a18.674,18.674,0,0,0,7.512-1.294c.566-.209,1.022-.413.481-1.109a30.2,30.2,0,0,1-4.226-7.376c-.225-.564-.537-.564-.973-.215a21.609,21.609,0,0,0-6.464,8.728c-.267.639-.15.971.59,1.109A20.118,20.118,0,0,0,849.607,521.632Zm31.8,0a24.452,24.452,0,0,0,2.974-.126c.793-.121,1.039-.422.706-1.205a21.761,21.761,0,0,0-6.407-8.634c-.494-.4-.761-.341-1.013.268a30.2,30.2,0,0,1-4.133,7.18c-.5.63-.387.956.364,1.219A19.406,19.406,0,0,0,881.405,521.63ZM865.548,507.1a23.261,23.261,0,0,0-3.18.165c-.673.126-.925.347-.634,1.061a23.515,23.515,0,0,0,3.107,5.425c.523.685.933.578,1.408-.048a23.276,23.276,0,0,0,3.051-5.335c.265-.651.17-.959-.571-1.1A23.633,23.633,0,0,0,865.548,507.1Z" transform="translate(-61.537 -58.952)"/><path class="a" d="M821,512.425a46.948,46.948,0,0,1-32.266-12.618,46.265,46.265,0,0,1-15.169-29.943c-1.434-13.2,2.2-25.032,10.46-35.433.746-.939,1.53-1.175,2.289-.714a1.507,1.507,0,0,1,.22,2.392,48.293,48.293,0,0,0-5.636,8.77,44.828,44.828,0,0,0-4.457,16.993,42.73,42.73,0,0,0,4.973,23.351c7.443,13.764,19.014,21.833,34.585,23.711,12.915,1.557,24.425-2.1,34.291-10.566a44.68,44.68,0,0,0-23.493-78.116,43.745,43.745,0,0,0-32.717,8.659c-.171.127-.339.259-.517.376a1.657,1.657,0,0,1-2.291-.236,1.531,1.531,0,0,1,.473-2.158,45.036,45.036,0,0,1,5.1-3.485,47.613,47.613,0,0,1,49.358.611,47.8,47.8,0,0,1,18.248,60.661,46.28,46.28,0,0,1-9.717,13.906,47.624,47.624,0,0,1-27.982,13.542A35.853,35.853,0,0,1,821,512.425Z" transform="translate(-17.062 -17.08)"/><path class="a" d="M1022.9,602.628c1.248.047,1.544,1.121,2.039,1.944.434.721.935,1.475.365,2.371a1.407,1.407,0,0,1-2.414.1,11.718,11.718,0,0,1-1.372-2.393A1.483,1.483,0,0,1,1022.9,602.628Z" transform="translate(-194.513 -149.952)"/></g></svg>