<svg xmlns="http://www.w3.org/2000/svg" width="22.735" height="22.735" viewBox="0 0 22.735 22.735"><defs><style>.a{fill:#583d0d;}</style></defs><path class="a" d="M-91.292-805.141a1.333,1.333,0,0,0-1.333,1.333,1.333,1.333,0,0,0,1.333,1.333,1.332,1.332,0,0,0,1.333-1.333,1.332,1.332,0,0,0-1.333-1.333Z" transform="translate(108.677 809.201)"/><path class="a" d="M-91.8-795.155a3.59,3.59,0,0,1-3.586-3.588,3.591,3.591,0,0,1,3.586-3.586,3.591,3.591,0,0,1,3.586,3.586,3.59,3.59,0,0,1-3.586,3.588Zm0-9.186a5.6,5.6,0,0,0-5.6,5.6,5.6,5.6,0,0,0,5.6,5.6,5.605,5.605,0,0,0,5.6-5.6,5.6,5.6,0,0,0-5.6-5.6Z" transform="translate(103.259 810.11)"/><path class="a" d="M-93.313-804.9A4.693,4.693,0,0,0-98-800.212v9.077a4.693,4.693,0,0,0,4.688,4.688h9.077a4.7,4.7,0,0,0,4.69-4.688v-9.077a4.7,4.7,0,0,0-4.69-4.69Zm9.077,20.6h-9.077a6.835,6.835,0,0,1-6.828-6.828v-9.077a6.837,6.837,0,0,1,6.828-6.83h9.077a6.839,6.839,0,0,1,6.83,6.83v9.077a6.837,6.837,0,0,1-6.83,6.828Z" transform="translate(100.141 807.042)"/></svg>