<svg xmlns="http://www.w3.org/2000/svg" width="226.022" height="162.116" viewBox="0 0 226.022 162.116"><defs><style>.a{fill:#583d0d;}</style></defs><g transform="translate(-2727.676 -842.35)"><path class="a" d="M2777.572,865.763a4.55,4.55,0,1,0,4.5,4.549,4.525,4.525,0,0,0-4.5-4.549" transform="translate(47.55 24.523)"/><path class="a" d="M2792.663,865.763a4.55,4.55,0,1,0,4.5,4.549,4.523,4.523,0,0,0-4.5-4.549" transform="translate(63.359 24.523)"/><path class="a" d="M2782.241,860.334a15.326,15.326,0,0,0-13.136-.078.914.914,0,0,0-.452,1.2.9.9,0,0,0,1.188.456,13.55,13.55,0,0,1,11.633.062c2.973,1.423,4.695,3.517,5.083,4.965a1.559,1.559,0,0,1-.989,2.068c-1.425.6-3.5.154-4.1-.893-.17-.295-.418-.819-.158-1.016a1.147,1.147,0,0,1,1.128-.033.889.889,0,0,0,1.249.2.913.913,0,0,0,.2-1.267,2.737,2.737,0,0,0-3.534-.44c-.858.565-1.423,1.775-.436,3.473a4.744,4.744,0,0,0,4.177,2.066,5.616,5.616,0,0,0,2.168-.418,3.376,3.376,0,0,0,2.024-4.216c-.6-2.256-2.977-4.664-6.046-6.132" transform="translate(42.838 17.246)"/><path class="a" d="M2806.69,860.258a15.312,15.312,0,0,0-13.136.078c-3.069,1.468-5.442,3.876-6.048,6.13a3.378,3.378,0,0,0,2.027,4.216,5.578,5.578,0,0,0,2.167.42,4.749,4.749,0,0,0,4.179-2.064c.985-1.7.42-2.909-.437-3.474a2.736,2.736,0,0,0-3.531.44.914.914,0,0,0,.2,1.269.887.887,0,0,0,1.251-.2,1.135,1.135,0,0,1,1.128.033c.26.2.014.721-.158,1.016-.608,1.046-2.678,1.5-4.1.891a1.559,1.559,0,0,1-.989-2.066c.39-1.447,2.111-3.544,5.084-4.965a13.564,13.564,0,0,1,11.633-.063.892.892,0,0,0,1.186-.456.912.912,0,0,0-.45-1.2" transform="translate(62.512 17.246)"/><path class="a" d="M2877.47,906.825a4.046,4.046,0,0,0-2.7-1.931,8.907,8.907,0,0,0-1.423-.141,14.13,14.13,0,0,0,2.484-8.034l0-.248a4.21,4.21,0,0,0-3.663-4.091,13.856,13.856,0,0,0-7.029.944c0-.049,0-.1,0-.145,0-.409-.006-.817-.014-1.224,0-.123-.01-.248-.012-.371-.01-.285-.019-.567-.031-.85-.008-.139-.019-.278-.024-.416-.015-.268-.029-.536-.047-.8-.01-.154-.027-.3-.037-.453-.021-.254-.039-.508-.063-.76-.017-.17-.035-.338-.054-.508-.024-.233-.047-.465-.075-.7-.021-.178-.045-.356-.068-.534-.029-.221-.055-.442-.088-.663-.026-.188-.057-.375-.086-.563-.032-.209-.063-.418-.1-.626s-.072-.4-.108-.592-.063-.377-.1-.565a.961.961,0,0,0-.033-.174c-.227-1.187-.5-2.379-.814-3.552a18.088,18.088,0,0,0-8.489-33.926,17.679,17.679,0,0,0-12.231,4.914,49.782,49.782,0,0,0-55.548,0,17.727,17.727,0,0,0-12.237-4.914,18.088,18.088,0,0,0-8.482,33.926c-.324,1.2-.6,2.412-.827,3.608a1.288,1.288,0,0,0-.041.215,51.541,51.541,0,0,0-.887,9.527l0,.014a13.6,13.6,0,0,0-4.955-.921,13.967,13.967,0,0,0-1.756.111,4.213,4.213,0,0,0-3.657,4.091l0,.246a14.114,14.114,0,0,0,2.484,8.034,8.947,8.947,0,0,0-1.425.141,4.047,4.047,0,0,0-2.705,1.933,4.228,4.228,0,0,0-.4,3.4,21.706,21.706,0,0,0,6.615,10.026c.481.416,1.007.825,1.562,1.218a.515.515,0,0,0,.053.033,20.563,20.563,0,0,0,2.77,1.662.909.909,0,0,0,.4.092.894.894,0,0,0,.8-.508.909.909,0,0,0-.408-1.214,18.752,18.752,0,0,1-2.577-1.552.656.656,0,0,0-.063-.041,16.9,16.9,0,0,1-1.372-1.075,19.9,19.9,0,0,1-6.07-9.191,2.4,2.4,0,0,1,.227-1.925,2.2,2.2,0,0,1,1.5-1.077,7.077,7.077,0,0,1,2.706.016,13.824,13.824,0,0,0,4.795,3.175.9.9,0,0,0,1.163-.516.915.915,0,0,0-.514-1.177,12.012,12.012,0,0,1-4.357-2.95.662.662,0,0,0-.059-.055,12.28,12.28,0,0,1-3.336-8.454l0-.215a2.4,2.4,0,0,1,2.088-2.32,11.963,11.963,0,0,1,1.531-.1,11.784,11.784,0,0,1,5.464,1.318c.453.258,2.994,2.531,3.95,3.386l.464.416q.028.031.062.062a51.164,51.164,0,0,0,8.533,6.214,50.237,50.237,0,0,0,25.2,6.763c.878,0,1.759-.027,2.625-.074a9.288,9.288,0,0,0,8.178,7.088v2.674l-.015.045a5.664,5.664,0,0,1-3.882,4.3,5.567,5.567,0,0,1-5.618-1.21.892.892,0,0,0-1.27.045.918.918,0,0,0,.047,1.284,7.251,7.251,0,0,0,5,1.992,7.7,7.7,0,0,0,2.385-.383,4.344,4.344,0,0,1,8.487,0,7.666,7.666,0,0,0,2.4.389,7.26,7.26,0,0,0,4.994-1.984.916.916,0,0,0,.049-1.282.888.888,0,0,0-1.269-.049,5.573,5.573,0,0,1-5.622,1.2,5.657,5.657,0,0,1-3.866-4.293.861.861,0,0,0-.028-.094v-2.633A9.357,9.357,0,0,0,2824,912.16c.917.055,1.875.084,2.854.084a50.078,50.078,0,0,0,11.068-1.23l.037-.008a49.772,49.772,0,0,0,14.01-5.475,50.546,50.546,0,0,0,8.317-6l.022-.023c.559-.487,1.409-1.276,2.23-2.035.843-.78,1.885-1.749,2.131-1.933a12.032,12.032,0,0,1,5.743-1.458,12.232,12.232,0,0,1,1.53.1,2.4,2.4,0,0,1,2.09,2.322l0,.215a12.283,12.283,0,0,1-3.383,8.507,12.15,12.15,0,0,1-4.379,2.963l-.056.021a.911.911,0,0,0-.6,1.13.9.9,0,0,0,1.114.612c.072-.022.146-.049.205-.074a13.979,13.979,0,0,0,4.8-3.182,7.079,7.079,0,0,1,2.7-.016,2.206,2.206,0,0,1,1.5,1.075,2.4,2.4,0,0,1,.227,1.927,19.92,19.92,0,0,1-6.075,9.2,17.11,17.11,0,0,1-1.368,1.069.626.626,0,0,0-.062.041,18.844,18.844,0,0,1-2.58,1.552.912.912,0,0,0-.407,1.214.9.9,0,0,0,.8.508.907.907,0,0,0,.4-.092,20.739,20.739,0,0,0,2.772-1.662c.016-.01.035-.021.051-.033a19.711,19.711,0,0,0,1.556-1.214,21.735,21.735,0,0,0,6.624-10.03,4.239,4.239,0,0,0-.4-3.4m-55.09,4.248a7.547,7.547,0,0,1-6.988,6.406c-.131,0-.268.008-.4.008-.08,0-.16,0-.254,0a7.507,7.507,0,0,1-7.139-6.423l-.008-.057a10.433,10.433,0,0,1,2.545-1.927,10.338,10.338,0,0,1,9.889.016,10.505,10.505,0,0,1,2.387,1.8c-.01.062-.019.123-.029.184m38.942-14.936c-.706.653-1.433,1.327-1.965,1.8l-.164,0-.194.313c-.162.145-.328.285-.491.428-.136.115-.269.231-.4.346-.176.145-.354.291-.533.436-.139.115-.278.229-.42.342-.172.139-.348.274-.523.409-.149.115-.3.234-.444.346-.172.131-.346.256-.518.383s-.313.233-.473.348-.34.24-.514.36-.325.231-.491.344-.326.217-.487.326c-.18.119-.356.237-.535.354-.147.094-.294.184-.442.278-.2.125-.4.252-.6.373-.072.045-.144.086-.213.129-.278.168-.557.334-.838.494v0a48.082,48.082,0,0,1-13.472,5.274.186.186,0,0,0-.045.008,48.328,48.328,0,0,1-10.71,1.194c-.845,0-1.674-.021-2.473-.062-.035-.043-.078-.092-.116-.139v-.006l-.047-.051c-.049-.055-.106-.117-.164-.178l-.053-.057,0,0-.016-.016-.008-.006a12.293,12.293,0,0,0-3.092-2.412,12.162,12.162,0,0,0-14.821,2.51,2.325,2.325,0,0,0-.284.313l-.047.051c-.778.037-1.572.057-2.36.057a48.456,48.456,0,0,1-24.311-6.521,49.308,49.308,0,0,1-8.184-5.952c-.023-.023-.043-.045-.066-.066l-.514-.459c-2.1-1.882-3.227-2.856-3.839-3.323,0-.1-.008-.207-.006-.311v-.057c-.01-.186-.008-.375-.008-.561a49.861,49.861,0,0,1,.858-9.222l.028-.143c.26-1.39.6-2.8.993-4.2l.209-.731-.678-.336a16.266,16.266,0,0,1,7.029-30.824,15.943,15.943,0,0,1,11.486,4.9l.528.549.625-.432a48,48,0,0,1,54.746,0l.625.432.526-.549a15.9,15.9,0,0,1,11.481-4.9,16.265,16.265,0,0,1,7.033,30.824l-.678.336.208.731c.389,1.366.719,2.762.985,4.152l.017.088a49.485,49.485,0,0,1,.88,9.328c0,.369,0,.729-.012,1.116v.016c-.342.293-.917.821-2,1.826" transform="translate(25.515 0)"/><path class="a" d="M2790.083,847.31a64.494,64.494,0,0,1,8.659.8.651.651,0,0,0,.747-.653.679.679,0,0,0-.586-.645,65.844,65.844,0,0,0-20.881,0,.685.685,0,0,0-.59.69.651.651,0,0,0,.646.618.582.582,0,0,0,.1-.008,64.48,64.48,0,0,1,8.656-.8.964.964,0,0,1,.977.97v2.25a.823.823,0,0,1-.788.825,29.115,29.115,0,0,0-7.012,1.169.684.684,0,0,0-.494.725.651.651,0,0,0,.643.567.639.639,0,0,0,.182-.027,27.893,27.893,0,0,1,6.625-1.122.817.817,0,0,1,.843.825v3.194a.926.926,0,0,1-.833.932,25.542,25.542,0,0,0-5.28,1.056.681.681,0,0,0-.492.721.648.648,0,0,0,.83.541c4.717-1.452,9.025-1.456,12.8-.014a.6.6,0,0,0,.227.043.654.654,0,0,0,.229-1.265,17.709,17.709,0,0,0-5.327-1.126.927.927,0,0,1-.864-.934v-3.1a.85.85,0,0,1,.884-.858,31.15,31.15,0,0,1,6.594,1.112.646.646,0,0,0,.8-.483.689.689,0,0,0-.506-.792,32.374,32.374,0,0,0-6.963-1.151.855.855,0,0,1-.812-.856v-2.232a.964.964,0,0,1,.977-.97" transform="translate(52.113 3.801)"/><path class="a" d="M2811.271,925.806h4.087a3.965,3.965,0,0,1-1.177-1.73,1.185,1.185,0,0,1-.307-.657V910.334a2.69,2.69,0,0,0-1.615-2.639,16,16,0,0,0-5.11-.893,11.974,11.974,0,0,0-7.1,2.086,22.565,22.565,0,0,1,4.806-.639,10.215,10.215,0,0,1,5.319,1.382l.277.166-.152.287a5.491,5.491,0,0,1-2.692,2.408,48.755,48.755,0,0,1-5.547,1.732c-3.063.835-4.551,2.918-4.551,6.37a4.727,4.727,0,0,0,2.019,4.158,7.871,7.871,0,0,0,4.7,1.3,9.7,9.7,0,0,0,5.58-2.332l1.009-.76-.5,1.167a2.549,2.549,0,0,0-.143.379c-.006.027-.031.176.26.678.242.42.516.622.841.622m-.931-13.4v8.775l-.125.1a7.873,7.873,0,0,1-4.844,2.068c-2.531,0-3.868-1.39-3.868-4.021a4.366,4.366,0,0,1,1.683-3.851,24.973,24.973,0,0,1,3.8-1.484,7,7,0,0,0,2.779-1.824l.577-.608Z" transform="translate(73.146 67.508)"/><path class="a" d="M2768.408,936.615c5.092,0,8.311-2.516,9.84-7.694.563-1.906.848-5.98.848-12.115a58.542,58.542,0,0,1,.3-7.3c.311-1.245.619-1.884,1-2.1.067-.037.21-.1.632-.272l-9.785.227a12.957,12.957,0,0,0-7.991,3.005,9.824,9.824,0,0,0-3.945,7.887,8.035,8.035,0,0,0,2.012,5.63,7,7,0,0,0,5.414,2.264,13.573,13.573,0,0,0,8.316-2.958l.524-.4.013.661a20.152,20.152,0,0,1-.989,7.1c-1.055,2.973-2.774,4.48-5.115,4.48a4.954,4.954,0,0,1-2.774-.958,10.851,10.851,0,0,1-2.236-2.451,11.576,11.576,0,0,1-1.308-2.082,7.093,7.093,0,0,1-2.86,2.676l2.358,2.457a10.092,10.092,0,0,0,5.743,1.943m4.918-14.381a6.7,6.7,0,0,1-4.649,2.025,4.806,4.806,0,0,1-3.812-1.863,6.689,6.689,0,0,1-1.56-3.988,7.989,7.989,0,0,1,2.728-6.736,10.04,10.04,0,0,1,6.85-2.43h3.29l-.157.242c.59.235.884,1.149.921,2.844a16.552,16.552,0,0,1-.852,5.569,10.435,10.435,0,0,1-2.758,4.339" transform="translate(33.134 67.851)"/><path class="a" d="M2785.721,925.806h4.084a3.965,3.965,0,0,1-1.175-1.73,1.183,1.183,0,0,1-.308-.657V910.334a2.69,2.69,0,0,0-1.615-2.639,16.009,16.009,0,0,0-5.11-.893,11.972,11.972,0,0,0-7.1,2.086,22.561,22.561,0,0,1,4.805-.639,10.218,10.218,0,0,1,5.319,1.382l.276.166-.151.287a5.494,5.494,0,0,1-2.692,2.408,48.608,48.608,0,0,1-5.548,1.732c-3.061.835-4.55,2.918-4.55,6.37a4.727,4.727,0,0,0,2.019,4.158,7.87,7.87,0,0,0,4.694,1.3,9.691,9.691,0,0,0,5.58-2.332l1.009-.76-.5,1.167a2.854,2.854,0,0,0-.141.379c-.006.027-.031.176.26.678.241.42.516.622.841.622m-.932-13.4v8.775l-.125.1a7.874,7.874,0,0,1-4.844,2.068c-2.531,0-3.868-1.39-3.868-4.021a4.366,4.366,0,0,1,1.683-3.851,25,25,0,0,1,3.8-1.484,6.992,6.992,0,0,0,2.779-1.824l.577-.608Z" transform="translate(46.385 67.508)"/><path class="a" d="M2805,921.727l2.354-2.512-6.193-5.938-.1-.1V897.727h-3.421v12.168l-.565-.543-8.007-7.682-2.354,2.512,10.823,10.38.1.1V935.8h3.421V917.945l.565.542Z" transform="translate(61.835 58.002)"/><path class="a" d="M2846.859,911.054a3.5,3.5,0,0,0-2.167-3.19,8.727,8.727,0,0,0-4.156-.97,9.541,9.541,0,0,0-5.55,1.605l-.192.133-.19-.135-.458-.328a4.923,4.923,0,0,0-2.437-.653,5.326,5.326,0,0,0-.567.031l-1.236.135a1.678,1.678,0,0,1-.226.582,3.139,3.139,0,0,1,2.246,3.1l-.108,12.348a2.577,2.577,0,0,1-.719,1.519l-.518.512h6.2c-.95-.936-1.126-1.288-1.155-1.519l-.164-1.165,0-12.712c0-1.4,2.236-1.562,3.919-1.562a4.832,4.832,0,0,1,2.485.616c.2.092.606.368,1.521,1.521l.026.031.017.037a3.729,3.729,0,0,1,.27,2.24,4.557,4.557,0,0,1-1.155,2.148,12.2,12.2,0,0,1-1.254,1.22c3.7-1.2,5.571-3.063,5.571-5.538" transform="translate(106.839 67.604)"/><path class="a" d="M2831.362,907.268a8.872,8.872,0,0,0-6.634,2.651l-.26.266-.237-.287-.833-1.007a6.631,6.631,0,0,0-4.461-1.624,10.949,10.949,0,0,0-5.833,1.8l-.512.319v-1.769h-4.876a4.069,4.069,0,0,1,1.343,2.416v13.331a2.559,2.559,0,0,1-.649,1.722l-.684.663h7.088l-.141-.764-1.417-.954-.045-.029-.032-.043a2.665,2.665,0,0,1-.586-1.681V912c0-.557.5-1.124,1.56-1.787a5.944,5.944,0,0,1,3.007-1.056,4.261,4.261,0,0,1,3.813,2.062,7.754,7.754,0,0,1,1.1,4.267,18.552,18.552,0,0,1-2.213,8.8l-.063,1.472h6.379l-.335-1c-1.587-1.511-1.808-2.137-1.824-2.514v-.037l.006-.035.08-.489.008-.045.018-.041c1.284-2.828,1.937-4.869,1.937-6.064a10.9,10.9,0,0,0-.811-3.984l-.077-.2.143-.158a6.08,6.08,0,0,1,4.638-2.041,3.751,3.751,0,0,1,3.37,2.33,8.619,8.619,0,0,1,.927,4.052,15.551,15.551,0,0,1-2.471,8.734l-.286,1.486h6.39l-.3-1c-1.583-1.513-1.8-2.14-1.818-2.516V922.2l.006-.037.08-.436.011-.061.032-.053,1.646-2.725a8.331,8.331,0,0,0,.7-3.368,9.38,9.38,0,0,0-1.683-5.792,6.07,6.07,0,0,0-5.2-2.457" transform="translate(83.834 67.996)"/><path class="a" d="M2827.639,903.484c-.07,0-.142,0-.215.006-2.177.086-2.428,1.075-2.428,1.814.156,1.206.95,1.787,2.494,1.787,2.387-.24,2.387-1.448,2.387-1.843a1.94,1.94,0,0,0-2.237-1.765" transform="translate(101.934 64.032)"/><path class="a" d="M2831.245,924.049a2.678,2.678,0,0,1-.17-1.089V907.267h-6.988a3.753,3.753,0,0,0,2.081,1.38,2.613,2.613,0,0,1,1.372,2.59V922.96a2.721,2.721,0,0,1-.582,1.708l-.684.678h6c-.817-.821-.987-1.114-1.032-1.3" transform="translate(100.982 67.995)"/><path class="a" d="M2752.424,907.015a9.291,9.291,0,0,0-6.892,2.586,9.517,9.517,0,0,0-2.557,6.971,9.108,9.108,0,0,0,2.848,6.748,9.458,9.458,0,0,0,6.814,2.782,8.942,8.942,0,0,0,8.277-4.854,10.8,10.8,0,0,1-1.679,1.368,8.956,8.956,0,0,1-5.033,1.6,6.6,6.6,0,0,1-5.327-2.484,8.587,8.587,0,0,1-1.908-5.653.541.541,0,0,0-.006-.07l-.039-.321.307-.107,13.255-2.379a11.226,11.226,0,0,0-2.811-4.5,7.773,7.773,0,0,0-5.25-1.691m3.892,5.174-9.055,1.828-.633.127.26-.6q.59-1.36,1.186-2.752a4.82,4.82,0,0,1,3.658-2.328,4.318,4.318,0,0,1,3.044.747,4.069,4.069,0,0,1,1.8,2.568l.074.34Z" transform="translate(16.025 67.731)"/><path class="a" d="M2751.383,913.56l-6.607-5.237-.338-.268.338-.266,6.607-5.239.542-.432V913.99Zm-20.214-.172V902.025l.546.43,6.722,5.334.336.266-.336.268-6.722,5.331-.546.432Zm20.627-15.667-9.983,7.917-.207.164-.209-.164-10.1-8.007-.027-.023-3.6,1.358v36.956h3.493V918.581l.129-.1,10.1-8.016.209-.164.207.164,9.983,7.921.129.1v17.436h3.493v-37l-3.479-1.312Z" transform="translate(0 57.877)"/><path class="a" d="M2760.965,924.049a2.686,2.686,0,0,1-.17-1.089V907.267h-6.988a3.753,3.753,0,0,0,2.081,1.38,2.612,2.612,0,0,1,1.372,2.59V922.96a2.711,2.711,0,0,1-.583,1.708l-.682.678h6c-.817-.821-.987-1.114-1.032-1.3" transform="translate(27.37 67.995)"/><path class="a" d="M2757.359,903.484c-.07,0-.142,0-.215.006-2.176.086-2.428,1.075-2.428,1.814.155,1.206.95,1.787,2.494,1.787,2.387-.24,2.387-1.448,2.387-1.843a1.941,1.941,0,0,0-2.238-1.765" transform="translate(28.322 64.032)"/></g></svg>