<svg xmlns="http://www.w3.org/2000/svg" xmlns:xlink="http://www.w3.org/1999/xlink" width="208.887" height="140.379" viewBox="0 0 208.887 140.379">
  <defs>
    <style>
      .cls-1 {
        fill: none;
      }

      .cls-2 {
        clip-path: url(#clip-path);
      }

      .cls-3 {
        fill: #5e4717;
      }
    </style>
    <clipPath id="clip-path">
      <path id="Trazado_111" data-name="Trazado 111" class="cls-1" d="M0,0H208.887V-140.379H0Z"/>
    </clipPath>
  </defs>
  <g id="marca-vertical" transform="translate(0 140.379)">
    <g id="Grupo_73" data-name="Grupo 73" class="cls-2">
      <g id="Grupo_58" data-name="Grupo 58" transform="translate(90.337 -96.726)">
        <path id="Trazado_96" data-name="Trazado 96" class="cls-3" d="M0,0A4.151,4.151,0,0,0-4.158,4.144,4.15,4.15,0,0,0,0,8.286,4.15,4.15,0,0,0,4.157,4.144,4.151,4.151,0,0,0,0,0"/>
      </g>
      <g id="Grupo_59" data-name="Grupo 59" transform="translate(118.902 -96.726)">
        <path id="Trazado_97" data-name="Trazado 97" class="cls-3" d="M0,0A4.151,4.151,0,0,0-4.157,4.144,4.15,4.15,0,0,0,0,8.286,4.15,4.15,0,0,0,4.157,4.144,4.151,4.151,0,0,0,0,0"/>
      </g>
      <g id="Grupo_60" data-name="Grupo 60" transform="translate(90.297 -108.297)">
        <path id="Trazado_98" data-name="Trazado 98" class="cls-3" d="M0,0A14.367,14.367,0,0,0-12.145-.07a.827.827,0,0,0-.418,1.093.833.833,0,0,0,1.1.417A12.7,12.7,0,0,1-.711,1.5C2.037,2.79,3.63,4.7,3.988,6.017A1.412,1.412,0,0,1,3.075,7.9c-1.316.55-3.231.142-3.792-.812-.157-.269-.387-.744-.147-.924A1.069,1.069,0,0,1,.179,6.132.828.828,0,0,0,1.52,5.16a2.559,2.559,0,0,0-3.266-.4c-.792.517-1.313,1.619-.4,3.164A4.4,4.4,0,0,0,1.714,9.8a5.266,5.266,0,0,0,2-.379A3.066,3.066,0,0,0,5.59,5.583C5.032,3.53,2.836,1.339,0,0"/>
      </g>
      <g id="Grupo_61" data-name="Grupo 61" transform="translate(131.086 -108.367)">
        <path id="Trazado_99" data-name="Trazado 99" class="cls-3" d="M0,0A14.355,14.355,0,0,0-12.145.071c-2.837,1.337-5.03,3.529-5.592,5.581a3.067,3.067,0,0,0,1.875,3.84,5.221,5.221,0,0,0,2,.381A4.406,4.406,0,0,0-10,7.994c.91-1.547.389-2.65-.4-3.164a2.559,2.559,0,0,0-3.266.4.825.825,0,0,0,.185,1.157A.829.829,0,0,0-12.324,6.2a1.069,1.069,0,0,1,1.044.029c.239.18.01.656-.146.924-.563.954-2.475,1.364-3.793.811a1.413,1.413,0,0,1-.915-1.882c.358-1.317,1.951-3.225,4.7-4.522A12.714,12.714,0,0,1-.68,1.509a.83.83,0,0,0,1.1-.417A.824.824,0,0,0,0,0"/>
      </g>
      <g id="Grupo_62" data-name="Grupo 62" transform="translate(147.389 -91.399)">
        <path id="Trazado_100" data-name="Trazado 100" class="cls-3" d="M0,0C-.653.6-1.323,1.209-1.816,1.641h-.153l-.178.287c-.15.132-.3.26-.456.39-.123.105-.247.211-.372.314-.162.133-.326.266-.49.4-.13.1-.256.208-.387.31-.16.128-.324.251-.486.375-.136.1-.273.212-.411.315-.158.118-.319.233-.479.349-.145.106-.288.213-.436.317s-.315.218-.476.327-.3.212-.454.313-.3.2-.451.3-.329.216-.495.323c-.134.085-.272.167-.407.252-.185.115-.367.229-.553.34-.066.041-.131.078-.2.117q-.383.229-.772.452h0a44.8,44.8,0,0,1-12.455,4.8c-.014,0-.027.005-.041.007a45.369,45.369,0,0,1-9.9,1.089c-.78,0-1.546-.019-2.285-.059l-.107-.126v0l-.045-.046c-.044-.051-.1-.106-.151-.163l-.05-.052-.005-.005-.013-.015s0,0-.006,0a11.386,11.386,0,0,0-2.858-2.2,11.391,11.391,0,0,0-5.382-1.352,11.326,11.326,0,0,0-5.335,1.333,11.222,11.222,0,0,0-2.985,2.306,1.856,1.856,0,0,0-.265.284l-.043.045c-.72.037-1.454.054-2.182.054a45.463,45.463,0,0,1-10-1.108,44.955,44.955,0,0,1-12.471-4.83,45.639,45.639,0,0,1-7.567-5.421c-.018-.019-.038-.039-.06-.059l-.473-.417c-1.948-1.715-2.984-2.6-3.551-3.027,0-.094-.006-.188,0-.283v-.052c-.008-.168-.008-.342-.008-.512a44.706,44.706,0,0,1,.795-8.4l.026-.13c.241-1.266.551-2.556.919-3.827l.191-.668-.626-.3a14.687,14.687,0,0,1-8.332-13.29A14.821,14.821,0,0,1-79.918-44.089a14.752,14.752,0,0,1,3.427.4A14.713,14.713,0,0,1-69.3-39.628l.489.5.576-.394a44.649,44.649,0,0,1,25.306-7.806,44.643,44.643,0,0,1,25.305,7.806l.577.392.488-.5a14.715,14.715,0,0,1,7.554-4.145,14.972,14.972,0,0,1,3.06-.316A14.824,14.824,0,0,1,8.891-29.31,14.689,14.689,0,0,1,.557-16.02l-.627.3.194.667c.359,1.243.664,2.514.909,3.78l.015.082a44.267,44.267,0,0,1,.816,8.493c0,.337,0,.665-.013,1.018v.016C1.536-1.395,1-.915,0,0M-36,13.6a6.732,6.732,0,0,1-.849,2.4,6.891,6.891,0,0,1-5.611,3.436c-.123,0-.248.008-.374.008-.074,0-.147,0-.234,0a6.9,6.9,0,0,1-6.6-5.848c0-.016-.006-.034-.009-.052a9.562,9.562,0,0,1,2.352-1.755,9.661,9.661,0,0,1,4.552-1.14A9.7,9.7,0,0,1-38.181,11.8a9.678,9.678,0,0,1,2.206,1.633c-.007.057-.016.113-.024.171M14.929,9.733a3.74,3.74,0,0,0-2.5-1.758,8.241,8.241,0,0,0-1.316-.129,12.731,12.731,0,0,0,2.3-7.314V.306a3.866,3.866,0,0,0-3.387-3.727A13.227,13.227,0,0,0,8.4-3.52a12.976,12.976,0,0,0-4.882.959c0-.045,0-.089,0-.133q0-.558-.013-1.114c0-.112-.008-.225-.012-.338-.007-.257-.015-.515-.028-.773-.005-.127-.014-.253-.022-.38-.014-.244-.026-.487-.044-.729-.009-.137-.023-.275-.035-.412-.019-.23-.035-.461-.057-.691-.014-.153-.033-.308-.05-.462-.021-.211-.043-.424-.068-.635-.019-.162-.043-.325-.063-.488-.028-.2-.053-.4-.082-.6-.023-.17-.052-.34-.079-.511-.031-.191-.059-.382-.092-.572s-.064-.359-.1-.539-.061-.343-.093-.513a1.051,1.051,0,0,0-.03-.16c-.21-1.081-.464-2.167-.754-3.234A16.317,16.317,0,0,0,10.55-29.31a16.484,16.484,0,0,0-16.5-16.435,16.591,16.591,0,0,0-3.4.354,16.38,16.38,0,0,0-7.907,4.122A46.307,46.307,0,0,0-42.929-48.98a46.315,46.315,0,0,0-25.677,7.711,16.379,16.379,0,0,0-7.5-4.03,16.433,16.433,0,0,0-3.81-.446A16.481,16.481,0,0,0-96.408-29.31a16.314,16.314,0,0,0,8.647,14.46c-.3,1.1-.556,2.2-.765,3.286a1.662,1.662,0,0,0-.038.194,46.317,46.317,0,0,0-.816,8.676v.014a12.775,12.775,0,0,0-4.582-.84,13.145,13.145,0,0,0-1.623.1A3.861,3.861,0,0,0-98.967.306l0,.226a12.722,12.722,0,0,0,2.3,7.314,8.252,8.252,0,0,0-1.316.129,3.74,3.74,0,0,0-2.5,1.759,3.8,3.8,0,0,0-.367,3.1,19.763,19.763,0,0,0,6.118,9.129,17.984,17.984,0,0,0,1.444,1.11.241.241,0,0,0,.048.03,18.953,18.953,0,0,0,2.56,1.512.819.819,0,0,0,.367.086.83.83,0,0,0,.745-.461.828.828,0,0,0-.379-1.108,17.445,17.445,0,0,1-2.383-1.412c-.018-.014-.038-.025-.057-.038-.452-.316-.877-.643-1.269-.978a18.114,18.114,0,0,1-5.612-8.371,2.149,2.149,0,0,1,.211-1.753A2.048,2.048,0,0,1-97.677,9.6a6.612,6.612,0,0,1,2.5.016,12.84,12.84,0,0,0,4.433,2.893.833.833,0,0,0,1.075-.473.825.825,0,0,0-.474-1.069,11.112,11.112,0,0,1-4.029-2.688.637.637,0,0,0-.053-.05,11.082,11.082,0,0,1-3.083-7.7v-.2a2.2,2.2,0,0,1,1.93-2.113,11.329,11.329,0,0,1,1.415-.088,11.064,11.064,0,0,1,5.053,1.2c.419.234,2.767,2.305,3.65,3.085l.43.378c.018.018.037.037.057.055a47.122,47.122,0,0,0,7.89,5.659A46.577,46.577,0,0,0-63.951,13.52a47.123,47.123,0,0,0,10.369,1.149c.81,0,1.625-.025,2.426-.066a8.546,8.546,0,0,0,7.562,6.453v2.435a.345.345,0,0,0-.014.042A5.2,5.2,0,0,1-47.2,27.449a5.213,5.213,0,0,1-5.195-1.1.831.831,0,0,0-1.171.042.823.823,0,0,0,.042,1.169A6.756,6.756,0,0,0-48.9,29.371a7.285,7.285,0,0,0,2.206-.348,6.923,6.923,0,0,0,3.929-3.112,6.915,6.915,0,0,0,3.915,3.108,7.247,7.247,0,0,0,2.218.354,6.769,6.769,0,0,0,4.618-1.807.824.824,0,0,0,.044-1.168.832.832,0,0,0-1.173-.046,5.212,5.212,0,0,1-5.2,1.094,5.174,5.174,0,0,1-3.572-3.912c-.007-.029-.019-.057-.028-.085v-2.4a8.539,8.539,0,0,0,6.523-4.219,8.284,8.284,0,0,0,.9-2.236c.85.047,1.734.075,2.638.075a46.952,46.952,0,0,0,10.233-1.121l.037-.007A46.446,46.446,0,0,0-8.649,8.554,46.547,46.547,0,0,0-.962,3.1a.193.193,0,0,1,.023-.019c.517-.446,1.3-1.162,2.061-1.855C1.9.509,2.865-.371,3.09-.54A11.346,11.346,0,0,1,9.815-1.779,2.191,2.191,0,0,1,11.746.335l0,.2A11.1,11.1,0,0,1,8.623,8.278a11.283,11.283,0,0,1-4.05,2.7l-.05.02a.827.827,0,1,0,.471,1.586c.066-.021.133-.045.19-.067a12.949,12.949,0,0,0,4.44-2.9,6.627,6.627,0,0,1,2.5-.016,2.048,2.048,0,0,1,1.384.981,2.145,2.145,0,0,1,.211,1.753A18.1,18.1,0,0,1,8.1,20.708c-.39.335-.814.662-1.263.976a.572.572,0,0,0-.058.037,17.385,17.385,0,0,1-2.383,1.412.827.827,0,1,0,.733,1.483A18.854,18.854,0,0,0,7.686,23.1a.175.175,0,0,0,.047-.029,18.1,18.1,0,0,0,1.44-1.1A19.773,19.773,0,0,0,15.3,12.835a3.8,3.8,0,0,0-.366-3.1"/>
      </g>
      <g id="Grupo_63" data-name="Grupo 63" transform="translate(106.119 -132.402)">
        <path id="Trazado_101" data-name="Trazado 101" class="cls-3" d="M0,0A60.428,60.428,0,0,1,8,.728.6.6,0,0,0,8.695.135a.624.624,0,0,0-.542-.589,61.811,61.811,0,0,0-19.3,0A.626.626,0,0,0-11.7.173a.6.6,0,0,0,.6.563A.441.441,0,0,0-11,.728,60.49,60.49,0,0,1-3,0a.884.884,0,0,1,.9.884v2.05a.755.755,0,0,1-.73.749A27.331,27.331,0,0,0-9.309,4.75a.617.617,0,0,0-.456.658.6.6,0,0,0,.592.519A.618.618,0,0,0-9,5.9,26.129,26.129,0,0,1-2.879,4.879a.751.751,0,0,1,.781.754V8.539a.848.848,0,0,1-.772.848,24.069,24.069,0,0,0-4.882.961.62.62,0,0,0-.451.659.6.6,0,0,0,.766.492A18.172,18.172,0,0,1,4.4,11.485a.547.547,0,0,0,.209.04.595.595,0,0,0,.212-1.152A16.625,16.625,0,0,0-.1,9.346.85.85,0,0,1-.9,8.5V5.674a.78.78,0,0,1,.819-.782,29.313,29.313,0,0,1,6.1,1.013.6.6,0,0,0,.741-.441.626.626,0,0,0-.468-.72A30.43,30.43,0,0,0-.151,3.7.784.784,0,0,1-.9,2.917V.884A.883.883,0,0,1,0,0"/>
      </g>
      <g id="Grupo_64" data-name="Grupo 64" transform="translate(26.414 -13.495)">
        <path id="Trazado_102" data-name="Trazado 102" class="cls-3" d="M0,0A12.914,12.914,0,0,1,2.1-3.863,10.745,10.745,0,0,1,5.39-6.634,8.849,8.849,0,0,1,9.7-7.689q.415,0,1.211.076a8.623,8.623,0,0,1,1.588.3,4.531,4.531,0,0,1,1.381.64,1.251,1.251,0,0,1,.587,1.055c0,.429-.083.7-.247.829a1.523,1.523,0,0,1-.889.189A4.982,4.982,0,0,1,11.9-4.8a4.888,4.888,0,0,0-1.438-.208,7.369,7.369,0,0,0-2.175.357A8.536,8.536,0,0,0,6.128-3.638a6.105,6.105,0,0,0-1.665,1.6A3.576,3.576,0,0,0,3.8.076c0,.5.107.79.322.866a3.418,3.418,0,0,0,1.039.114A4.379,4.379,0,0,0,6.241.925q.511-.133,1-.284t1-.283A4.181,4.181,0,0,1,9.287.227a3.73,3.73,0,0,1,1.721.414,1.54,1.54,0,0,1,.814,1.507,1.048,1.048,0,0,1-.379.868,1.408,1.408,0,0,1-.908.3,4.1,4.1,0,0,1-1.362-.225,4.046,4.046,0,0,0-1.361-.227,7.459,7.459,0,0,0-1.287.1l-1.059.188c-.354.063-.744.113-1.173.15A9.834,9.834,0,0,1,2.7,3.281a15.119,15.119,0,0,0,.718,2.957A8.5,8.5,0,0,0,4.729,8.651a5.6,5.6,0,0,0,2.043,1.622,6.763,6.763,0,0,0,2.931.584,4.945,4.945,0,0,0,2.08-.416,13.452,13.452,0,0,0,1.7-.922q.8-.51,1.571-.944A3.33,3.33,0,0,1,16.7,8.142a.968.968,0,0,1,.814.452,1.557,1.557,0,0,1,.321.9,2.176,2.176,0,0,1-1.022,1.772,9.353,9.353,0,0,1-2.364,1.245,16.118,16.118,0,0,1-2.7.734,12.587,12.587,0,0,1-2.043.244,15.167,15.167,0,0,1-4.067-.528,9.33,9.33,0,0,1-3.329-1.639A7.689,7.689,0,0,1,.076,8.482,9.686,9.686,0,0,1-.738,4.335,13.27,13.27,0,0,1,0,0"/>
      </g>
      <g id="Grupo_65" data-name="Grupo 65" transform="translate(46.936 -2.151)">
        <path id="Trazado_103" data-name="Trazado 103" class="cls-3" d="M0,0A10.609,10.609,0,0,1,.605-1.243v-.942q0-.68.019-1.414t.02-1.414v-3.43q0-1.809-.1-3.449T.227-15.567a3.917,3.917,0,0,0-.6-1.206,2,2,0,0,1-.416-1.206,1.627,1.627,0,0,1,.056-.433.519.519,0,0,1,.36-.321h.34c.152,0,.322-.006.51-.019s.36-.02.512-.02h.34c.025,0,.182,0,.473-.017a6.656,6.656,0,0,1,.964.037,3.668,3.668,0,0,1,.965.226.577.577,0,0,1,.435.547L4.01-.489a.975.975,0,0,0,.208.528,4.947,4.947,0,0,0,.492.6c.188.2.359.373.51.509a1.972,1.972,0,0,0,.3.247l-.757.753H.227c-.227,0-.354-.132-.378-.4s-.038-.446-.038-.546A3.356,3.356,0,0,1,0,0"/>
      </g>
      <g id="Grupo_66" data-name="Grupo 66" transform="translate(55.182 -15.08)">
        <path id="Trazado_104" data-name="Trazado 104" class="cls-3" d="M0,0A9.538,9.538,0,0,1,2.307-3.278,10.634,10.634,0,0,1,5.75-5.389a11.73,11.73,0,0,1,4.237-.754c.175,0,.5-.007.983-.02a9.757,9.757,0,0,1,1.475.076,5.1,5.1,0,0,1,1.343.34.792.792,0,0,1,.586.734,7.932,7.932,0,0,1-.113,1.319,4.784,4.784,0,0,1-.378,1.245,2.61,2.61,0,0,1-.7.923,1.694,1.694,0,0,1-1.116.359c-.2,0-.441-.013-.719-.039s-.416-.212-.416-.566V-1.96a2.114,2.114,0,0,1,.057-.264c.037-.149.082-.307.132-.47s.1-.32.133-.472a1.577,1.577,0,0,0,.057-.3c0-.049-.052-.125-.152-.227s-.176-.15-.227-.15c-.1,0-.322-.006-.661-.019s-.563-.02-.663-.02a8.043,8.043,0,0,0-2.875.492A6.512,6.512,0,0,0,4.52-2.016,6.1,6.1,0,0,0,3.083.132a7.421,7.421,0,0,0-.51,2.808A8.01,8.01,0,0,0,3.5,6.71a11.039,11.039,0,0,0,2.44,3.129,11.931,11.931,0,0,0,3.424,2.149,9.949,9.949,0,0,0,3.839.792c.05,0,.176-.006.379-.019s.327-.02.378-.02q.227-1.245.321-2.092a17.716,17.716,0,0,0,.094-1.94,2.873,2.873,0,0,0-.321-1.433q-.323-.565-.851-1.32c.05-.174.265-.333.643-.471a9.655,9.655,0,0,1,1.267-.358q.7-.148,1.4-.227c.467-.05.813-.073,1.04-.073h.19A.888.888,0,0,1,17.95,5a.966.966,0,0,1,.17.207v.378l-.378,8.669L16.985,15c-.051,0-.284.01-.7.036s-.839.04-1.267.04H14.3a26.513,26.513,0,0,1-5.164-.529,16.408,16.408,0,0,1-4.88-1.771A10.876,10.876,0,0,1,.605,9.462,8.91,8.91,0,0,1-.832,4.26,10.612,10.612,0,0,1,0,0"/>
      </g>
      <g id="Grupo_67" data-name="Grupo 67" transform="translate(87.563 -18.797)">
        <path id="Trazado_105" data-name="Trazado 105" class="cls-3" d="M0,0Q-1.173.566-2.762,1.507A24.979,24.979,0,0,0-5.826,3.656,15.155,15.155,0,0,0-8.341,6.238,5.281,5.281,0,0,0-9.495,8.972c0,.049.006.144.019.281s.018.234.018.283A18.506,18.506,0,0,1-7.169,7.389,12.763,12.763,0,0,1-4.918,5.994a20.632,20.632,0,0,1,2.478-1q1.305-.432,2.969-.962L.719.3ZM-11.859,8.255a13.315,13.315,0,0,1,1.38-2.978A16.117,16.117,0,0,1-8.436,2.658q1.173-1.227,2.5-2.433A3.2,3.2,0,0,0-6.488,0a2.231,2.231,0,0,0-.587-.151q-.264,0-.907-.02c-.43-.011-.883-.017-1.362-.017s-.933.006-1.362.017-.732.02-.908.02a.891.891,0,0,1-.434-.472,4.4,4.4,0,0,1-.285-.621,1.269,1.269,0,0,1,.058-.7c.087-.288.195-.433.321-.433H3.934V18.356a.307.307,0,0,1-.17.284,1.288,1.288,0,0,1-.36.132,1.528,1.528,0,0,1-.4.019c-.138-.013-.221-.019-.246-.019-.126,0-.277-.007-.454-.019a3.011,3.011,0,0,1-.548-.094,1.3,1.3,0,0,1-.473-.227.543.543,0,0,1-.189-.453v-9.8L.529,7.049c-.378-.024-.63-.037-.756-.037a7.962,7.962,0,0,0-2.781.526A9.819,9.819,0,0,0-5.6,8.972a7.559,7.559,0,0,0-1.91,2.147,5.092,5.092,0,0,0-.737,2.64,2.9,2.9,0,0,0,.434,1.658,2.831,2.831,0,0,0,1.135.979,4.749,4.749,0,0,0,1.589.434,7.94,7.94,0,0,0,1.8-.018.516.516,0,0,1,.36.32,1.635,1.635,0,0,1,.057.434,1.235,1.235,0,0,1-.152.658,1.447,1.447,0,0,1-.643.472q-.189,0-.756.019c-.379.012-.63.018-.756.018a6.209,6.209,0,0,1-2.573-.582A8.431,8.431,0,0,1-10.063,16.6a8.038,8.038,0,0,1-1.664-2.223,5.778,5.778,0,0,1-.643-2.658,11.22,11.22,0,0,1,.511-3.468"/>
      </g>
      <g id="Grupo_68" data-name="Grupo 68" transform="translate(130.098 -22.207)">
        <path id="Trazado_106" data-name="Trazado 106" class="cls-3" d="M0,0A11.456,11.456,0,0,0-1.7-4.058,8.243,8.243,0,0,0-4.873-6.741a11.2,11.2,0,0,0-4.918-.975,9.022,9.022,0,0,0-2.8.421,19.618,19.618,0,0,0-2.358.943c-.735.343-1.38.653-1.958.942a3.925,3.925,0,0,1-1.714.466h-.7l.178-.389a8.791,8.791,0,0,0,.423-1.086,3.56,3.56,0,0,0,.155-1.086c0-.3-.066-.522-.155-.566A3.123,3.123,0,0,0-19.983-8.2c-.111,0-.333.022-.678.056q-.551.049-1.135.133c-.4.054-.79.11-1.168.188s-.624.121-.768.155c0,.022-.067.066-.211.188a.52.52,0,0,0-.134.133l.011,22.773c0,.11-.022.355-.055.709s-.089.72-.145,1.12-.111.8-.189,1.186l-.167.842c.011.056-.045.212-.267.622-.133.233-.222.388-.267.476v.366c.066.067.134.156.233.255a.615.615,0,0,0,.112.122h5.841c.034-.022.078-.067.156-.133.1-.111.155-.177.189-.21v-.4c-.044-.1-.123-.266-.222-.5a1.91,1.91,0,0,0-.246-.467l-.078-.077V-.332a2.526,2.526,0,0,1,1.113-1.952,10.564,10.564,0,0,1,2.437-1.453,16.355,16.355,0,0,1,2.792-.942A10.6,10.6,0,0,1-10.6-5.011a6.437,6.437,0,0,1,3.183.764A7.069,7.069,0,0,1-5.152-2.229,8.819,8.819,0,0,1-3.794.566a11.859,11.859,0,0,1,.445,3.171A28.2,28.2,0,0,1-3.961,9.5a32.968,32.968,0,0,1-1.591,5.477A9.4,9.4,0,0,1-6.6,16.619c-.49.653-.99,1.319-1.491,2.007l-1.368,1.851c-.523.71-.546.9-.546.92,0,.532.2.61.268.643a3.211,3.211,0,0,0,1.2.166,4.758,4.758,0,0,0,2.882-.953,9.562,9.562,0,0,0,2.336-2.506,17.757,17.757,0,0,0,1.748-3.5,37.1,37.1,0,0,0,1.19-3.88A35.935,35.935,0,0,0,.289,7.783,22.089,22.089,0,0,0,.512,5.1,24.578,24.578,0,0,0,0,0"/>
      </g>
      <g id="Grupo_69" data-name="Grupo 69" transform="translate(145.563 -18.797)">
        <path id="Trazado_107" data-name="Trazado 107" class="cls-3" d="M0,0Q-1.173.566-2.762,1.507A25.056,25.056,0,0,0-5.826,3.656,15.155,15.155,0,0,0-8.341,6.238,5.281,5.281,0,0,0-9.495,8.972c0,.049.006.144.019.281s.018.234.018.283A18.506,18.506,0,0,1-7.169,7.389,12.763,12.763,0,0,1-4.918,5.994a20.632,20.632,0,0,1,2.478-1q1.305-.432,2.969-.962L.719.3ZM-11.859,8.255a13.315,13.315,0,0,1,1.38-2.978A16.117,16.117,0,0,1-8.436,2.658q1.173-1.227,2.5-2.433A3.2,3.2,0,0,0-6.488,0a2.231,2.231,0,0,0-.587-.151q-.264,0-.907-.02T-9.344-.188c-.479,0-.934.006-1.362.017s-.732.02-.908.02a.9.9,0,0,1-.435-.472,4.492,4.492,0,0,1-.284-.621,1.277,1.277,0,0,1,.057-.7c.088-.288.2-.433.322-.433H3.934V18.356a.307.307,0,0,1-.17.284,1.288,1.288,0,0,1-.36.132,1.528,1.528,0,0,1-.4.019c-.138-.013-.221-.019-.246-.019-.126,0-.277-.007-.454-.019a3.011,3.011,0,0,1-.548-.094,1.3,1.3,0,0,1-.473-.227.543.543,0,0,1-.189-.453v-9.8L.529,7.049c-.378-.024-.63-.037-.756-.037a7.966,7.966,0,0,0-2.781.526A9.819,9.819,0,0,0-5.6,8.972a7.559,7.559,0,0,0-1.91,2.147,5.092,5.092,0,0,0-.737,2.64,2.9,2.9,0,0,0,.434,1.658,2.831,2.831,0,0,0,1.135.979,4.749,4.749,0,0,0,1.589.434,7.939,7.939,0,0,0,1.8-.018.516.516,0,0,1,.36.32,1.635,1.635,0,0,1,.057.434,1.235,1.235,0,0,1-.152.658,1.447,1.447,0,0,1-.643.472q-.189,0-.756.019c-.379.012-.63.018-.757.018a6.2,6.2,0,0,1-2.572-.582A8.431,8.431,0,0,1-10.063,16.6a8.038,8.038,0,0,1-1.664-2.223,5.778,5.778,0,0,1-.643-2.658,11.22,11.22,0,0,1,.511-3.468"/>
      </g>
      <g id="Grupo_70" data-name="Grupo 70" transform="translate(170.264 -1.808)">
        <path id="Trazado_108" data-name="Trazado 108" class="cls-3" d="M0,0A2.27,2.27,0,0,1,.719-.416c.276-.1.567-.2.87-.3a1.6,1.6,0,0,0,.757-.528,10.467,10.467,0,0,0,1.8-3.562,15.125,15.125,0,0,0,.511-4.015,9.993,9.993,0,0,0-.36-2.507A10.334,10.334,0,0,0,3.235-13.91a7.088,7.088,0,0,0-1.722-2.016A3.713,3.713,0,0,0-.87-16.738a7.32,7.32,0,0,0-.908.076,5.1,5.1,0,0,0-1.078.264,2.711,2.711,0,0,0-.889.528A1.113,1.113,0,0,0-4.124-15a2.467,2.467,0,0,0,.492,1.395c.327.479.681.955,1.059,1.433s.732.949,1.06,1.414a2.377,2.377,0,0,1,.491,1.375v.226a2.427,2.427,0,0,1-.056.471.327.327,0,0,1-.359.284H-5.826a11.794,11.794,0,0,0-.321-2.639,9.4,9.4,0,0,0-1-2.581,6.038,6.038,0,0,0-1.778-1.963,4.565,4.565,0,0,0-2.685-.771,2.911,2.911,0,0,0-1.948.623,4.438,4.438,0,0,0-1.173,1.562,7.165,7.165,0,0,0-.587,2.036,14.892,14.892,0,0,0-.15,2.035,12.845,12.845,0,0,0,.926,4.884,10.354,10.354,0,0,0,2.894,3.975,4.835,4.835,0,0,0,1.38.866A2.983,2.983,0,0,1-9,.641a.913.913,0,0,1-.681.734,5.4,5.4,0,0,1-1.022.093A5.461,5.461,0,0,1-13.315.847,7.429,7.429,0,0,1-15.4-.793a10.189,10.189,0,0,1-1.551-2.336,18.961,18.961,0,0,1-1.078-2.715,18.793,18.793,0,0,1-.643-2.75,16.285,16.285,0,0,1-.208-2.451v-.414c0-.228.006-.465.019-.717s.018-.478.018-.679v-.451a21.213,21.213,0,0,1,1.193-2.263,9.721,9.721,0,0,1,1.531-1.94,7.028,7.028,0,0,1,1.968-1.358,5.853,5.853,0,0,1,2.5-.509,6.276,6.276,0,0,1,2.837.661,11.773,11.773,0,0,1,2.459,1.639q1.4-.792,2.875-1.546A6.889,6.889,0,0,1-.3-19.376a7.766,7.766,0,0,1,3.538.81A8.966,8.966,0,0,1,6-16.418a9.963,9.963,0,0,1,1.8,3.073,10.21,10.21,0,0,1,.644,3.581,19.247,19.247,0,0,1-.378,3.506A15.513,15.513,0,0,1,6.828-2.47,9.891,9.891,0,0,1,4.635.566,4.642,4.642,0,0,1,1.362,1.808c-.152,0-.322-.007-.511-.02A1.994,1.994,0,0,1,.3,1.676a1.055,1.055,0,0,1-.436-.281A.829.829,0,0,1-.3.829,1.041,1.041,0,0,1,0,0"/>
      </g>
      <g id="Grupo_71" data-name="Grupo 71" transform="translate(181.386 -2.151)">
        <path id="Trazado_109" data-name="Trazado 109" class="cls-3" d="M0,0A10.773,10.773,0,0,1,.605-1.243v-.942q0-.68.019-1.414c.012-.489.02-.961.02-1.414v-3.43q0-1.809-.1-3.449T.227-15.567a3.917,3.917,0,0,0-.6-1.206,2,2,0,0,1-.416-1.206,1.627,1.627,0,0,1,.056-.433.519.519,0,0,1,.36-.321h.34c.151,0,.322-.006.51-.019s.36-.02.512-.02h.34c.025,0,.182,0,.473-.017a6.661,6.661,0,0,1,.964.037,3.678,3.678,0,0,1,.965.226.577.577,0,0,1,.435.547L4.01-.489a.975.975,0,0,0,.208.528,4.855,4.855,0,0,0,.492.6c.188.2.359.373.511.509a1.886,1.886,0,0,0,.3.247l-.757.753H.227c-.227,0-.354-.132-.378-.4s-.038-.446-.038-.546A3.356,3.356,0,0,1,0,0"/>
      </g>
      <g id="Grupo_72" data-name="Grupo 72" transform="translate(192.072 -18.226)">
        <path id="Trazado_110" data-name="Trazado 110" class="cls-3" d="M0,0C.013.364.032.761.057,1.187S.1,2.012.114,2.376s.019.621.019.772a1.052,1.052,0,0,0,.151.395A1.748,1.748,0,0,0,.511,3.9h.34c.151,0,.323.007.511.017s.359.019.511.019h.34q.681,0,1.57-.036a6.622,6.622,0,0,0,1.684-.284A3.4,3.4,0,0,0,6.81,2.865a1.885,1.885,0,0,0,.548-1.451A1.672,1.672,0,0,0,6.6,0,3.131,3.131,0,0,0,5.05-.621c-.2,0-.542-.006-1.021-.019S3.039-.671,2.5-.7,1.443-.741.965-.754.157-.773-.018-.773c0,.152.006.409.018.773M11.254,16.68c.126-.225.266-.453.417-.678a7.848,7.848,0,0,0,.415-.7,1.888,1.888,0,0,0,.19-.886,6.772,6.772,0,0,0-.549-2.828,6.153,6.153,0,0,0-1.494-2.055A8.748,8.748,0,0,0,8.076,8.122,13.265,13.265,0,0,0,5.5,7.237a20.736,20.736,0,0,0-2.742-.453C1.841,6.7.965,6.652.133,6.652v11.2H-2.893c-.026,0-.082-.05-.171-.151s-.158-.176-.207-.225v-.152q0-5.125.227-9.952t.151-9.876A9.886,9.886,0,0,1-.169-2.921h3.4c.3,0,.625.007.966.02s.662.017.964.017h.643a13.964,13.964,0,0,1,1.777.548,5.22,5.22,0,0,1,1.457.829,3.677,3.677,0,0,1,.983,1.223,3.827,3.827,0,0,1,.36,1.735A4.9,4.9,0,0,1,10.252,2.7a2.555,2.555,0,0,1-.416.867,3.515,3.515,0,0,1-.719.7q-.435.321-1.041.772a.924.924,0,0,0,.171.208.922.922,0,0,0,.208.169q1.59.867,3.083,1.848a15.278,15.278,0,0,1,2.667,2.2,10.135,10.135,0,0,1,1.891,2.79,8.429,8.429,0,0,1,.719,3.563,4.753,4.753,0,0,1-.057.6,4.4,4.4,0,0,1-.188.81,2.436,2.436,0,0,1-.36.7.683.683,0,0,1-.568.3H11.481a.331.331,0,0,1-.359-.3,2.665,2.665,0,0,1-.057-.45,1.6,1.6,0,0,1,.189-.793"/>
      </g>
    </g>
    <g id="Grupo_74" data-name="Grupo 74" transform="translate(0 -30.903)">
      <path id="Trazado_112" data-name="Trazado 112" class="cls-3" d="M0,0V30.9H3.733V16.519l8.241-6.443,8.143,6.364V30.9H23.85V-.04L20.474-1.3l-8.5,6.643L3.683-1.128,3.476-1.3ZM3.733,3.641,8.947,7.715,3.733,11.787ZM15,7.715l5.118-4v7.994Z"/>
    </g>
  </g>
</svg>
