<svg xmlns="http://www.w3.org/2000/svg" xmlns:xlink="http://www.w3.org/1999/xlink" width="233.071" height="37.529" viewBox="0 0 233.071 37.529">
  <defs>
    <style>
      .cls-1 {
        fill: none;
      }

      .cls-2 {
        clip-path: url(#clip-path);
      }

      .cls-3 {
        fill: #5e4717;
      }
    </style>
    <clipPath id="clip-path">
      <path id="Trazado_128" data-name="Trazado 128" class="cls-1" d="M0,0H233.071V-37.529H0Z"/>
    </clipPath>
  </defs>
  <g id="marca-horizontal" transform="translate(0 37.529)">
    <g id="Grupo_91" data-name="Grupo 91" class="cls-2">
      <g id="Grupo_76" data-name="Grupo 76" transform="translate(21.816 -16.621)">
        <path id="Trazado_113" data-name="Trazado 113" class="cls-3" d="M0,0A2.026,2.026,0,0,0-2.063,1.985,2.025,2.025,0,0,0,0,3.969,2.026,2.026,0,0,0,2.063,1.985,2.026,2.026,0,0,0,0,0"/>
      </g>
      <g id="Grupo_77" data-name="Grupo 77" transform="translate(35.986 -16.621)">
        <path id="Trazado_114" data-name="Trazado 114" class="cls-3" d="M0,0A2.026,2.026,0,0,0-2.063,1.985,2.026,2.026,0,0,0,0,3.969,2.026,2.026,0,0,0,2.063,1.985,2.026,2.026,0,0,0,0,0"/>
      </g>
      <g id="Grupo_78" data-name="Grupo 78" transform="translate(21.796 -22.163)">
        <path id="Trazado_115" data-name="Trazado 115" class="cls-3" d="M0,0A7.355,7.355,0,0,0-6.024-.034.391.391,0,0,0-6.232.49a.419.419,0,0,0,.544.2A6.5,6.5,0,0,1-.353.716,4.144,4.144,0,0,1,1.979,2.882a.674.674,0,0,1-.453.9A1.714,1.714,0,0,1-.356,3.395c-.078-.13-.192-.357-.073-.443a.549.549,0,0,1,.518-.015.423.423,0,0,0,.573.088.386.386,0,0,0,.092-.553,1.3,1.3,0,0,0-1.62-.193,1.013,1.013,0,0,0-.2,1.515,2.211,2.211,0,0,0,1.916.9,2.715,2.715,0,0,0,.994-.182,1.456,1.456,0,0,0,.928-1.84A4.941,4.941,0,0,0,0,0"/>
      </g>
      <g id="Grupo_79" data-name="Grupo 79" transform="translate(42.03 -22.196)">
        <path id="Trazado_116" data-name="Trazado 116" class="cls-3" d="M0,0A7.347,7.347,0,0,0-6.024.034,4.942,4.942,0,0,0-8.8,2.707a1.457,1.457,0,0,0,.93,1.84,2.687,2.687,0,0,0,.994.182,2.215,2.215,0,0,0,1.916-.9c.452-.741.192-1.269-.2-1.516a1.3,1.3,0,0,0-1.62.192.388.388,0,0,0,.092.555.423.423,0,0,0,.574-.089.549.549,0,0,1,.518.015c.118.085,0,.313-.072.442a1.712,1.712,0,0,1-1.882.389A.672.672,0,0,1-8,2.916,4.139,4.139,0,0,1-5.672.749,6.509,6.509,0,0,1-.337.723a.417.417,0,0,0,.543-.2A.388.388,0,0,0,0,0"/>
      </g>
      <g id="Grupo_80" data-name="Grupo 80" transform="translate(57.522 -9.407)">
        <path id="Trazado_117" data-name="Trazado 117" class="cls-3" d="M0,0A1.857,1.857,0,0,0-1.24-.842,4.173,4.173,0,0,0-1.893-.9a5.954,5.954,0,0,0,1.139-3.5v-.109A1.876,1.876,0,0,0-2.434-6.3a6.725,6.725,0,0,0-.8-.047,6.609,6.609,0,0,0-2.421.459c0-.022,0-.042,0-.064,0-.178,0-.355-.006-.534q0-.079-.006-.162c0-.122-.008-.246-.015-.37,0-.061-.007-.121-.011-.182-.007-.116-.013-.233-.022-.349,0-.065-.01-.131-.016-.2-.01-.111-.018-.221-.029-.331-.007-.073-.017-.147-.025-.221-.01-.1-.021-.2-.034-.3-.009-.078-.021-.156-.031-.234-.013-.1-.026-.193-.041-.29-.011-.081-.026-.162-.038-.244s-.03-.183-.047-.274-.031-.172-.047-.259-.031-.164-.046-.246a.638.638,0,0,0-.015-.076c-.105-.518-.231-1.037-.375-1.549A7.782,7.782,0,0,0-2.172-18.7a8.042,8.042,0,0,0-8.182-7.873,8.506,8.506,0,0,0-1.687.17,8.229,8.229,0,0,0-3.923,1.974A23.562,23.562,0,0,0-28.7-28.122a23.563,23.563,0,0,0-12.737,3.693,8.223,8.223,0,0,0-3.722-1.93,8.387,8.387,0,0,0-1.89-.214A8.039,8.039,0,0,0-55.228-18.7a7.776,7.776,0,0,0,4.289,6.925c-.149.525-.277,1.053-.38,1.575-.008.031-.014.061-.019.092a21.488,21.488,0,0,0-.4,4.156v.007a6.524,6.524,0,0,0-2.272-.4,6.563,6.563,0,0,0-.805.048A1.874,1.874,0,0,0-56.5-4.516v.109a5.948,5.948,0,0,0,1.14,3.5,4.2,4.2,0,0,0-.654.061A1.858,1.858,0,0,0-57.252,0a1.766,1.766,0,0,0-.183,1.485A9.455,9.455,0,0,0-54.4,5.858a8.658,8.658,0,0,0,.717.532l.024.015a9.369,9.369,0,0,0,1.27.724.424.424,0,0,0,.182.042.416.416,0,0,0,.37-.221.391.391,0,0,0-.189-.531,8.582,8.582,0,0,1-1.181-.677l-.029-.018c-.224-.151-.435-.308-.63-.468a8.667,8.667,0,0,1-2.783-4.01,1,1,0,0,1,.1-.84,1.015,1.015,0,0,1,.688-.469,3.379,3.379,0,0,1,1.24.008,6.4,6.4,0,0,0,2.2,1.385.418.418,0,0,0,.533-.226A.392.392,0,0,0-52.12.591a5.5,5.5,0,0,1-2-1.287l-.026-.024a5.213,5.213,0,0,1-1.53-3.687V-4.5a1.066,1.066,0,0,1,.958-1.011,5.665,5.665,0,0,1,.7-.042,5.652,5.652,0,0,1,2.507.574c.207.113,1.371,1.1,1.81,1.478l.213.181.028.026A23.29,23.29,0,0,0-45.542-.585a23.618,23.618,0,0,0,6.414,2.4,24.168,24.168,0,0,0,5.143.551c.4,0,.806-.013,1.2-.032A4.2,4.2,0,0,0-29.03,5.424V6.59a.173.173,0,0,0-.007.021,2.524,2.524,0,0,1-1.781,1.875,2.652,2.652,0,0,1-2.576-.529.423.423,0,0,0-.581.021.384.384,0,0,0,.021.56,3.415,3.415,0,0,0,2.294.868,3.7,3.7,0,0,0,1.093-.166,3.419,3.419,0,0,0,1.95-1.49,3.412,3.412,0,0,0,1.942,1.488,3.7,3.7,0,0,0,1.1.169,3.424,3.424,0,0,0,2.29-.865.386.386,0,0,0,.022-.559.424.424,0,0,0-.582-.023,2.65,2.65,0,0,1-2.578.524,2.515,2.515,0,0,1-1.772-1.873c0-.014-.009-.028-.013-.041V5.421A4.252,4.252,0,0,0-24.972,3.4a3.857,3.857,0,0,0,.449-1.071c.421.022.86.036,1.309.036a24.113,24.113,0,0,0,5.076-.537l.018,0A23.545,23.545,0,0,0-11.7-.564,23.112,23.112,0,0,0-7.883-3.18l.011-.008c.257-.214.647-.557,1.023-.889s.864-.762.977-.843a5.744,5.744,0,0,1,2.634-.635,5.841,5.841,0,0,1,.7.041A1.065,1.065,0,0,1-1.579-4.5v.095A5.221,5.221,0,0,1-3.129-.7,5.594,5.594,0,0,1-5.137.6l-.025.01A.393.393,0,0,0-5.44,1.1a.414.414,0,0,0,.512.268c.032-.01.066-.021.093-.032a6.458,6.458,0,0,0,2.2-1.387A3.385,3.385,0,0,1-1.394-.063,1.011,1.011,0,0,1-.708.406a1,1,0,0,1,.105.84A8.659,8.659,0,0,1-3.389,5.257c-.193.161-.4.317-.627.468a.261.261,0,0,0-.028.017,8.546,8.546,0,0,1-1.183.677.389.389,0,0,0-.187.531.415.415,0,0,0,.37.221.423.423,0,0,0,.181-.042,9.431,9.431,0,0,0,1.27-.724.1.1,0,0,0,.024-.015,8.62,8.62,0,0,0,.713-.529A9.451,9.451,0,0,0,.181,1.486,1.765,1.765,0,0,0,0,0M-25.263,1.854A3.165,3.165,0,0,1-25.684,3a3.433,3.433,0,0,1-2.784,1.646c-.06,0-.123,0-.185,0-.036,0-.073,0-.116,0a3.384,3.384,0,0,1-3.274-2.8c0-.008,0-.016-.005-.025A4.747,4.747,0,0,1-30.881.983,4.94,4.94,0,0,1-28.622.438,4.957,4.957,0,0,1-26.345.99a4.8,4.8,0,0,1,1.094.783l-.012.081M-7.406-4.662c-.323.286-.656.579-.9.787h-.076l-.089.137c-.074.063-.151.125-.226.187s-.122.1-.184.15c-.081.065-.161.128-.243.191-.064.049-.127.1-.192.149-.08.061-.161.12-.242.18s-.135.1-.2.15-.157.112-.237.167-.143.1-.216.152-.157.105-.236.156-.149.1-.225.151-.149.1-.224.142l-.245.155c-.067.04-.135.079-.2.12-.092.055-.183.11-.275.163l-.1.057c-.127.073-.254.145-.383.216a22.7,22.7,0,0,1-6.179,2.3.071.071,0,0,0-.02,0,23.366,23.366,0,0,1-4.912.521c-.387,0-.768-.009-1.134-.028l-.054-.061v0l-.021-.021c-.022-.025-.049-.052-.075-.078l-.025-.026,0,0a.017.017,0,0,1-.006-.006s0,0,0,0A5.651,5.651,0,0,0-25.953.293a5.814,5.814,0,0,0-2.669-.648,5.777,5.777,0,0,0-2.647.64,5.5,5.5,0,0,0-1.48,1.1.851.851,0,0,0-.132.135l-.021.022c-.358.017-.722.025-1.083.025a23.382,23.382,0,0,1-4.962-.53,22.783,22.783,0,0,1-6.186-2.314,22.631,22.631,0,0,1-3.754-2.6l-.03-.029-.234-.2c-.967-.822-1.48-1.247-1.762-1.45,0-.045,0-.09,0-.136v-.025c0-.08,0-.163,0-.245a20.728,20.728,0,0,1,.394-4.022l.013-.062c.12-.607.274-1.224.456-1.834l.095-.319-.311-.145A7.021,7.021,0,0,1-54.406-18.7a7.231,7.231,0,0,1,7.357-7.08,7.651,7.651,0,0,1,1.7.191,7.378,7.378,0,0,1,3.567,1.946l.242.24.286-.189A22.709,22.709,0,0,1-28.7-27.331a22.706,22.706,0,0,1,12.553,3.739l.285.188.243-.239a7.375,7.375,0,0,1,3.746-1.985,7.651,7.651,0,0,1,1.519-.152A7.231,7.231,0,0,1-3-18.7a7.019,7.019,0,0,1-4.133,6.366l-.311.145.1.319c.178.6.33,1.2.451,1.811l.008.039a20.521,20.521,0,0,1,.4,4.068c0,.161,0,.319-.006.487v.008c-.157.127-.421.357-.919.795"/>
      </g>
      <g id="Grupo_81" data-name="Grupo 81" transform="translate(29.645 -33.708)">
        <path id="Trazado_118" data-name="Trazado 118" class="cls-3" d="M0,0A30.922,30.922,0,0,1,3.969.349.294.294,0,0,0,4.313.064a.3.3,0,0,0-.269-.281,31.687,31.687,0,0,0-9.575,0,.3.3,0,0,0-.27.3.291.291,0,0,0,.3.27.256.256,0,0,0,.047,0A30.953,30.953,0,0,1-1.489,0a.432.432,0,0,1,.448.424V1.4a.367.367,0,0,1-.362.359,14.043,14.043,0,0,0-3.215.511.3.3,0,0,0-.226.315.292.292,0,0,0,.294.248.3.3,0,0,0,.084-.011,13.331,13.331,0,0,1,3.038-.49.367.367,0,0,1,.387.361V4.091a.41.41,0,0,1-.383.4,12.3,12.3,0,0,0-2.421.461.3.3,0,0,0-.224.315.3.3,0,0,0,.38.236A9.315,9.315,0,0,1,2.183,5.5a.29.29,0,0,0,.1.019.3.3,0,0,0,.277-.184.28.28,0,0,0-.172-.367A8.461,8.461,0,0,0-.051,4.477a.413.413,0,0,1-.4-.408V2.718a.381.381,0,0,1,.406-.375,14.991,14.991,0,0,1,3.024.486.3.3,0,0,0,.368-.212.3.3,0,0,0-.233-.345,15.566,15.566,0,0,0-3.193-.5A.382.382,0,0,1-.447,1.4V.424A.431.431,0,0,1,0,0"/>
      </g>
      <g id="Grupo_82" data-name="Grupo 82" transform="translate(89.793 -13.571)">
        <path id="Trazado_119" data-name="Trazado 119" class="cls-3" d="M0,0A9.662,9.662,0,0,1,1.649-2.929a8.354,8.354,0,0,1,2.584-2.1,7.155,7.155,0,0,1,3.386-.8c.217,0,.535.02.951.057a7.106,7.106,0,0,1,1.247.229,3.578,3.578,0,0,1,1.084.486.938.938,0,0,1,.46.8c0,.325-.064.534-.193.629a1.225,1.225,0,0,1-.7.143,4.054,4.054,0,0,1-1.13-.156A3.973,3.973,0,0,0,8.213-3.8a5.925,5.925,0,0,0-1.708.272,6.756,6.756,0,0,0-1.693.77A4.762,4.762,0,0,0,3.5-1.543a2.647,2.647,0,0,0-.519,1.6c0,.381.085.6.253.656A2.737,2.737,0,0,0,4.054.8,3.568,3.568,0,0,0,4.9.7c.267-.068.529-.139.787-.216s.519-.148.787-.215a3.452,3.452,0,0,1,.817-.1A3.017,3.017,0,0,1,8.644.486a1.16,1.16,0,0,1,.638,1.142.784.784,0,0,1-.3.659,1.13,1.13,0,0,1-.712.228,3.341,3.341,0,0,1-1.07-.17,3.286,3.286,0,0,0-1.069-.173,6.016,6.016,0,0,0-1.01.072l-.832.143q-.417.07-.921.113a7.857,7.857,0,0,1-1.247-.012A11.081,11.081,0,0,0,2.688,4.73,6.369,6.369,0,0,0,3.713,6.559a4.377,4.377,0,0,0,1.6,1.23,5.479,5.479,0,0,0,2.3.443,3.985,3.985,0,0,0,1.633-.316,11,11,0,0,0,1.337-.7q.624-.388,1.232-.717a2.7,2.7,0,0,1,1.292-.328.77.77,0,0,1,.64.343,1.155,1.155,0,0,1,.252.686,1.641,1.641,0,0,1-.8,1.344,7.467,7.467,0,0,1-1.856.943,12.937,12.937,0,0,1-2.124.556,10.217,10.217,0,0,1-1.6.187,12.321,12.321,0,0,1-3.193-.4A7.463,7.463,0,0,1,1.811,8.589,5.884,5.884,0,0,1,.06,6.43,7.123,7.123,0,0,1-.579,3.287,9.755,9.755,0,0,1,0,0"/>
      </g>
      <g id="Grupo_83" data-name="Grupo 83" transform="translate(105.906 -4.97)">
        <path id="Trazado_120" data-name="Trazado 120" class="cls-3" d="M0,0A7.965,7.965,0,0,1,.475-.942v-.714q0-.516.016-1.072C.5-3.1.506-3.457.506-3.8V-6.4q0-1.371-.075-2.615T.178-11.8A2.91,2.91,0,0,0-.3-12.717a1.481,1.481,0,0,1-.326-.914,1.193,1.193,0,0,1,.044-.329A.4.4,0,0,1-.3-14.2h.268c.118,0,.252,0,.4-.014s.282-.016.4-.016H1.04c.019,0,.143,0,.371-.012a5.288,5.288,0,0,1,.757.028,2.945,2.945,0,0,1,.758.171.441.441,0,0,1,.342.415L3.149-.37a.722.722,0,0,0,.163.4A3.936,3.936,0,0,0,3.7.486c.148.152.282.283.4.385a1.525,1.525,0,0,0,.238.188l-.594.571H.178c-.178,0-.277-.1-.3-.3S-.148.992-.148.916A2.483,2.483,0,0,1,0,0"/>
      </g>
      <g id="Grupo_84" data-name="Grupo 84" transform="translate(112.382 -14.772)">
        <path id="Trazado_121" data-name="Trazado 121" class="cls-3" d="M0,0A7.245,7.245,0,0,1,1.811-2.485a8.438,8.438,0,0,1,2.7-1.6,9.52,9.52,0,0,1,3.328-.571c.137,0,.4-.006.772-.015a7.884,7.884,0,0,1,1.158.057,4.089,4.089,0,0,1,1.054.258c.308.123.46.309.46.556a5.782,5.782,0,0,1-.088,1,3.553,3.553,0,0,1-.3.945,1.988,1.988,0,0,1-.55.7,1.358,1.358,0,0,1-.876.272c-.159,0-.346-.01-.564-.029s-.328-.162-.328-.43v-.142a1.656,1.656,0,0,1,.046-.2c.029-.112.064-.233.1-.355s.075-.243.1-.358a1.171,1.171,0,0,0,.045-.228c0-.038-.041-.1-.119-.173s-.138-.114-.179-.114c-.079,0-.252,0-.518-.014s-.442-.015-.52-.015a6.517,6.517,0,0,0-2.258.372A5.172,5.172,0,0,0,3.55-1.529,4.63,4.63,0,0,0,2.42.1a5.468,5.468,0,0,0-.4,2.129,5.918,5.918,0,0,0,.727,2.858A8.418,8.418,0,0,0,4.663,7.46,9.419,9.419,0,0,0,7.351,9.089a8.067,8.067,0,0,0,3.015.6q.058,0,.3-.015t.3-.015q.179-.943.252-1.586A12.86,12.86,0,0,0,11.286,6.6a2.112,2.112,0,0,0-.252-1.087q-.252-.427-.668-1c.039-.132.208-.253.505-.357a7.794,7.794,0,0,1,.995-.272q.549-.113,1.1-.172c.365-.038.638-.055.816-.055h.148a.642.642,0,0,1,.164.128.772.772,0,0,1,.134.156v.287l-.3,6.573-.594.571c-.039,0-.223.008-.549.029s-.659.029-.995.029h-.564a21.579,21.579,0,0,1-4.055-.4A13.17,13.17,0,0,1,3.342,9.69,8.441,8.441,0,0,1,.475,7.175,6.592,6.592,0,0,1-.653,3.229,7.78,7.78,0,0,1,0,0"/>
      </g>
      <g id="Grupo_85" data-name="Grupo 85" transform="translate(128.496 -11.332)">
        <path id="Trazado_122" data-name="Trazado 122" class="cls-3" d="M0,0A9.927,9.927,0,0,1,1.084-2.258a12.291,12.291,0,0,1,1.6-1.986q.921-.928,1.961-1.844a2.6,2.6,0,0,0-.43-.171,1.84,1.84,0,0,0-.462-.115c-.138,0-.375,0-.712-.014S2.351-6.4,1.975-6.4,1.242-6.4.906-6.388s-.575.014-.714.014a.69.69,0,0,1-.341-.357A3.5,3.5,0,0,1-.373-7.2a.932.932,0,0,1,.046-.529c.069-.218.154-.329.252-.329H12.4V7.658a.231.231,0,0,1-.134.215,1.018,1.018,0,0,1-.283.1,1.229,1.229,0,0,1-.311.014c-.109-.009-.174-.014-.194-.014-.1,0-.217-.005-.356-.015a2.464,2.464,0,0,1-.431-.071,1.015,1.015,0,0,1-.37-.172.4.4,0,0,1-.149-.343V-.058L9.727-.915q-.445-.027-.594-.027a6.447,6.447,0,0,0-2.183.4A7.785,7.785,0,0,0,4.915.544a5.783,5.783,0,0,0-1.5,1.628,3.75,3.75,0,0,0-.58,2A2.13,2.13,0,0,0,3.178,5.43a2.211,2.211,0,0,0,.891.743A3.841,3.841,0,0,0,5.316,6.5a6.468,6.468,0,0,0,1.411-.013.4.4,0,0,1,.282.242,1.206,1.206,0,0,1,.045.33.916.916,0,0,1-.119.5,1.154,1.154,0,0,1-.505.357q-.148,0-.593.015t-.594.014A5.032,5.032,0,0,1,3.222,7.5,6.667,6.667,0,0,1,1.41,6.33,6.087,6.087,0,0,1,.1,4.644,4.244,4.244,0,0,1-.4,2.63,8.229,8.229,0,0,1,0,0M9.312-6.259q-.923.429-2.169,1.143A19.86,19.86,0,0,0,4.737-3.488,11.709,11.709,0,0,0,2.762-1.529,3.933,3.933,0,0,0,1.856.544c0,.037,0,.109.014.212s.015.178.015.215a14.29,14.29,0,0,1,1.8-1.628A10,10,0,0,1,5.449-1.714,16.3,16.3,0,0,1,7.4-2.472Q8.421-2.8,9.727-3.2l.149-2.83Z"/>
      </g>
      <g id="Grupo_86" data-name="Grupo 86" transform="translate(171.206 -20.176)">
        <path id="Trazado_123" data-name="Trazado 123" class="cls-3" d="M0,0A8.51,8.51,0,0,0-1.336-3.076a6.421,6.421,0,0,0-2.49-2.035,9.067,9.067,0,0,0-3.862-.74,7.3,7.3,0,0,0-2.2.32,15.733,15.733,0,0,0-1.852.714c-.577.261-1.084.5-1.538.716a3.176,3.176,0,0,1-1.345.352h-.551l.14-.294a6.282,6.282,0,0,0,.332-.824,2.6,2.6,0,0,0,.122-.824c0-.227-.052-.394-.122-.428a2.488,2.488,0,0,0-.987-.1c-.087,0-.262.017-.533.042-.288.024-.586.059-.891.1s-.62.084-.918.144-.488.092-.6.118c0,.016-.053.049-.166.142a.383.383,0,0,0-.105.1l.008,17.265c0,.084-.017.27-.043.538s-.07.547-.114.85-.086.6-.147.9l-.132.639c.008.042-.036.16-.209.471-.106.177-.176.294-.21.362v.277c.052.051.1.118.183.193a.476.476,0,0,0,.088.093H-14.9c.027-.017.061-.051.122-.1.079-.084.122-.134.149-.159v-.3c-.035-.076-.1-.2-.174-.378a1.406,1.406,0,0,0-.194-.354l-.061-.059V-.252a1.9,1.9,0,0,1,.874-1.48,8.325,8.325,0,0,1,1.913-1.1,13.24,13.24,0,0,1,2.193-.715A8.557,8.557,0,0,1-8.326-3.8a5.2,5.2,0,0,1,2.5.579A5.491,5.491,0,0,1-4.045-1.69,6.583,6.583,0,0,1-2.979.429a8.668,8.668,0,0,1,.35,2.4A20.708,20.708,0,0,1-3.11,7.2a24.342,24.342,0,0,1-1.249,4.153A7.086,7.086,0,0,1-5.18,12.6c-.385.495-.778,1-1.171,1.521l-1.074,1.4c-.411.537-.429.68-.429.7,0,.4.158.462.21.488a2.636,2.636,0,0,0,.943.125,3.816,3.816,0,0,0,2.264-.723,7.375,7.375,0,0,0,1.834-1.9,13.264,13.264,0,0,0,1.371-2.656A27.1,27.1,0,0,0-.3,8.616,26.33,26.33,0,0,0,.227,5.9,16.156,16.156,0,0,0,.4,3.867,17.987,17.987,0,0,0,0,0"/>
      </g>
      <g id="Grupo_87" data-name="Grupo 87" transform="translate(174.038 -11.332)">
        <path id="Trazado_124" data-name="Trazado 124" class="cls-3" d="M0,0A9.927,9.927,0,0,1,1.084-2.258a12.244,12.244,0,0,1,1.6-1.986q.92-.928,1.96-1.844a2.6,2.6,0,0,0-.43-.171,1.846,1.846,0,0,0-.461-.115c-.139,0-.376,0-.713-.014S2.351-6.4,1.974-6.4,1.242-6.4.906-6.388s-.575.014-.714.014a.69.69,0,0,1-.341-.357A3.353,3.353,0,0,1-.372-7.2a.922.922,0,0,1,.045-.529c.069-.218.154-.329.252-.329H12.4V7.658a.23.23,0,0,1-.134.215,1.007,1.007,0,0,1-.283.1,1.229,1.229,0,0,1-.311.014c-.109-.009-.174-.014-.194-.014-.1,0-.217-.005-.356-.015a2.464,2.464,0,0,1-.431-.071,1.015,1.015,0,0,1-.37-.172.4.4,0,0,1-.149-.343V-.058L9.727-.915q-.445-.027-.594-.027a6.442,6.442,0,0,0-2.182.4A7.753,7.753,0,0,0,4.916.544a5.786,5.786,0,0,0-1.5,1.628,3.75,3.75,0,0,0-.58,2A2.138,2.138,0,0,0,3.178,5.43a2.218,2.218,0,0,0,.891.743A3.841,3.841,0,0,0,5.317,6.5a6.46,6.46,0,0,0,1.41-.013.4.4,0,0,1,.283.242,1.245,1.245,0,0,1,.044.33.908.908,0,0,1-.119.5,1.154,1.154,0,0,1-.505.357c-.1,0-.3.005-.593.015s-.5.014-.595.014A5.026,5.026,0,0,1,3.223,7.5,6.657,6.657,0,0,1,1.41,6.33,6.106,6.106,0,0,1,.1,4.644,4.244,4.244,0,0,1-.4,2.63,8.229,8.229,0,0,1,0,0M9.312-6.259q-.923.429-2.169,1.143A19.86,19.86,0,0,0,4.737-3.488,11.746,11.746,0,0,0,2.762-1.529,3.933,3.933,0,0,0,1.856.544c0,.037,0,.109.014.212s.015.178.015.215a14.29,14.29,0,0,1,1.8-1.628A9.975,9.975,0,0,1,5.45-1.714,16.221,16.221,0,0,1,7.4-2.472Q8.421-2.8,9.727-3.2l.149-2.83Z"/>
      </g>
      <g id="Grupo_88" data-name="Grupo 88" transform="translate(202.745 -4.71)">
        <path id="Trazado_125" data-name="Trazado 125" class="cls-3" d="M0,0A1.82,1.82,0,0,1,.565-.316c.216-.075.445-.152.682-.228a1.247,1.247,0,0,0,.6-.4,7.8,7.8,0,0,0,1.41-2.7,11.092,11.092,0,0,0,.4-3.045,7.357,7.357,0,0,0-.282-1.9,7.659,7.659,0,0,0-.832-1.956,5.4,5.4,0,0,0-1.351-1.529,2.989,2.989,0,0,0-1.871-.616,5.95,5.95,0,0,0-.713.058,4.113,4.113,0,0,0-.846.2,2.148,2.148,0,0,0-.7.4.829.829,0,0,0-.3.657,1.835,1.835,0,0,0,.386,1.057q.385.544.832,1.086t.832,1.073A1.759,1.759,0,0,1-.8-7.117v.171a1.792,1.792,0,0,1-.045.358.253.253,0,0,1-.281.214H-4.575a8.642,8.642,0,0,0-.252-2,6.929,6.929,0,0,0-.787-1.957,4.652,4.652,0,0,0-1.4-1.488A3.675,3.675,0,0,0-9.119-12.4a2.339,2.339,0,0,0-1.53.472,3.377,3.377,0,0,0-.92,1.185A5.292,5.292,0,0,0-12.031-9.2a11.1,11.1,0,0,0-.118,1.542,9.43,9.43,0,0,0,.729,3.7A7.842,7.842,0,0,0-9.148-.944a3.859,3.859,0,0,0,1.083.658,2.33,2.33,0,0,1,1,.772.7.7,0,0,1-.535.557,4.457,4.457,0,0,1-.8.07A4.416,4.416,0,0,1-10.455.642,5.824,5.824,0,0,1-12.09-.6a7.67,7.67,0,0,1-1.217-1.772,13.914,13.914,0,0,1-.846-2.058,13.73,13.73,0,0,1-.506-2.085,11.949,11.949,0,0,1-.163-1.858v-.314c0-.173,0-.353.016-.544s.013-.362.013-.514v-.342a16.093,16.093,0,0,1,.937-1.716,7.449,7.449,0,0,1,1.2-1.472,5.571,5.571,0,0,1,1.544-1.029,4.737,4.737,0,0,1,1.961-.385,5.081,5.081,0,0,1,2.227.5A9.328,9.328,0,0,1-4.99-12.946q1.1-.6,2.257-1.173A5.563,5.563,0,0,1-.239-14.69a6.267,6.267,0,0,1,2.778.614,6.994,6.994,0,0,1,2.169,1.629,7.54,7.54,0,0,1,1.411,2.328A7.508,7.508,0,0,1,6.624-7.4a13.961,13.961,0,0,1-.3,2.658,11.47,11.47,0,0,1-.964,2.872A7.537,7.537,0,0,1,3.639.429a3.721,3.721,0,0,1-2.57.942c-.119,0-.252,0-.4-.016a1.6,1.6,0,0,1-.431-.084A.825.825,0,0,1-.1,1.057.611.611,0,0,1-.239.629.774.774,0,0,1,0,0"/>
      </g>
      <g id="Grupo_89" data-name="Grupo 89" transform="translate(211.477 -4.97)">
        <path id="Trazado_126" data-name="Trazado 126" class="cls-3" d="M0,0A7.965,7.965,0,0,1,.475-.942v-.714q0-.516.016-1.072C.5-3.1.5-3.457.5-3.8V-6.4Q.5-7.772.431-9.016T.178-11.8A2.91,2.91,0,0,0-.3-12.717a1.481,1.481,0,0,1-.326-.914,1.193,1.193,0,0,1,.044-.329A.4.4,0,0,1-.3-14.2h.266c.12,0,.254,0,.4-.014s.283-.016.4-.016H1.04c.019,0,.142,0,.371-.012a5.288,5.288,0,0,1,.757.028,2.955,2.955,0,0,1,.758.171.441.441,0,0,1,.342.415L3.148-.37a.725.725,0,0,0,.164.4A3.748,3.748,0,0,0,3.7.486c.148.152.282.283.4.385a1.525,1.525,0,0,0,.238.188l-.594.571H.178c-.178,0-.278-.1-.3-.3S-.148.992-.148.916A2.462,2.462,0,0,1,0,0"/>
      </g>
      <g id="Grupo_90" data-name="Grupo 90" transform="translate(228.704 -4.512)">
        <path id="Trazado_127" data-name="Trazado 127" class="cls-3" d="M0,0C.1-.171.209-.343.327-.513a5.834,5.834,0,0,0,.326-.529A1.38,1.38,0,0,0,.8-1.714a5,5,0,0,0-.43-2.144A4.684,4.684,0,0,0-.8-5.416,6.918,6.918,0,0,0-2.495-6.488a10.774,10.774,0,0,0-2.019-.671A16.682,16.682,0,0,0-6.667-7.5c-.724-.065-1.412-.1-2.065-.1V.887h-2.376c-.021,0-.065-.038-.134-.114S-11.366.639-11.406.6V.486q0-3.887.179-7.545t.119-7.488a8,8,0,0,1,2.139-.314H-6.3c.239,0,.491.005.758.015s.52.013.757.013h.505a11.435,11.435,0,0,1,1.4.415,4.139,4.139,0,0,1,1.144.629,2.831,2.831,0,0,1,.772.927,2.823,2.823,0,0,1,.282,1.316,3.555,3.555,0,0,1-.1.944,1.868,1.868,0,0,1-.327.657,2.676,2.676,0,0,1-.563.528c-.228.163-.5.358-.818.587a.764.764,0,0,0,.134.157.721.721,0,0,0,.164.128q1.246.657,2.42,1.4A11.909,11.909,0,0,1,2.317-5.473,7.66,7.66,0,0,1,3.8-3.357a6.21,6.21,0,0,1,.564,2.7A3.409,3.409,0,0,1,4.322-.2a3.283,3.283,0,0,1-.148.615,1.824,1.824,0,0,1-.282.528.541.541,0,0,1-.446.231H.178A.258.258,0,0,1-.1.942,2.012,2.012,0,0,1-.148.6,1.177,1.177,0,0,1,0,0M-8.836-12.646c.009.276.025.577.044.9s.035.625.045.9.015.472.015.587a.775.775,0,0,0,.118.3,1.281,1.281,0,0,0,.179.273h.267c.119,0,.253.005.4.014s.282.013.4.013H-7.1c.357,0,.768-.008,1.233-.027A5.39,5.39,0,0,0-4.544-9.9a2.69,2.69,0,0,0,1.054-.571,1.4,1.4,0,0,0,.43-1.1,1.256,1.256,0,0,0-.593-1.072,2.51,2.51,0,0,0-1.218-.471q-.239,0-.8-.014t-1.2-.043q-.641-.029-1.2-.043c-.376-.01-.634-.015-.772-.015q0,.173.015.586"/>
      </g>
    </g>
    <g id="Grupo_92" data-name="Grupo 92" transform="translate(85.129 -27.752)">
      <path id="Trazado_129" data-name="Trazado 129" class="cls-3" d="M0,0-6.675,5.037-13.185.128-13.347,0l-2.73.983v23.43h2.932V13.507l6.47-4.884,6.394,4.824V24.412H2.651V.952ZM-4.3,6.832-.281,3.8V9.862Zm-4.752,0L-13.145,9.92V3.743Z"/>
    </g>
  </g>
</svg>
