<svg xmlns="http://www.w3.org/2000/svg" xmlns:xlink="http://www.w3.org/1999/xlink" width="288.312" height="52.085" viewBox="0 0 288.312 52.085"><defs><style>.a{fill:none;}.b{clip-path:url(#a);}.c{fill:#583d0d;}</style><clipPath id="a"><rect class="a" width="288.312" height="52.085"/></clipPath></defs><g transform="translate(-1011.541 -599.048)"><g transform="translate(1011.541 599.048)"><g class="b"><path class="c" d="M1034.388,621.874a2.692,2.692,0,1,0,2.623,2.691,2.657,2.657,0,0,0-2.623-2.691" transform="translate(-1006.64 -593.517)"/><path class="c" d="M1048.894,621.874a2.692,2.692,0,1,0,2.623,2.691,2.657,2.657,0,0,0-2.623-2.691" transform="translate(-1003.125 -593.517)"/><path class="c" d="M1035.411,616a8.824,8.824,0,0,0-7.661-.046.542.542,0,0,0-.263.711.518.518,0,0,0,.691.27,7.813,7.813,0,0,1,6.786.036,5.441,5.441,0,0,1,2.965,2.938.925.925,0,0,1-.578,1.222,2.08,2.08,0,0,1-2.392-.528c-.1-.174-.245-.483-.093-.6a.659.659,0,0,1,.659-.02.515.515,0,0,0,.729.119.548.548,0,0,0,.118-.75,1.581,1.581,0,0,0-2.061-.26,1.426,1.426,0,0,0-.255,2.055,2.753,2.753,0,0,0,2.436,1.22,3.227,3.227,0,0,0,1.265-.246,2.006,2.006,0,0,0,1.181-2.495,6.491,6.491,0,0,0-3.527-3.626" transform="translate(-1007.688 -595.158)"/><path class="c" d="M1056.77,615.954a8.815,8.815,0,0,0-7.661.046,6.5,6.5,0,0,0-3.528,3.626,2.009,2.009,0,0,0,1.183,2.495,3.226,3.226,0,0,0,1.265.246,2.754,2.754,0,0,0,2.436-1.22,1.428,1.428,0,0,0-.255-2.056,1.582,1.582,0,0,0-2.061.261.548.548,0,0,0,.117.752.515.515,0,0,0,.73-.119.65.65,0,0,1,.657.019c.153.117.008.426-.092.6a2.083,2.083,0,0,1-2.393.528.925.925,0,0,1-.577-1.224,5.446,5.446,0,0,1,2.964-2.937,7.813,7.813,0,0,1,6.786-.036.518.518,0,0,0,.692-.271.543.543,0,0,0-.263-.709" transform="translate(-1003.313 -595.159)"/><path class="c" d="M1075.284,630.865c-.412.388-.835.785-1.146,1.066h-.1l-.112.185c-.1.086-.193.169-.288.253-.078.068-.155.137-.235.2-.1.088-.206.173-.309.258-.082.068-.163.137-.245.2-.1.082-.2.163-.306.242-.087.068-.172.138-.26.2s-.2.152-.3.227-.183.138-.275.205-.2.142-.3.214-.19.137-.287.2-.19.128-.284.191-.208.142-.312.21c-.086.056-.171.109-.257.164-.117.075-.232.149-.349.222-.041.025-.083.048-.124.075-.163.1-.324.2-.488.293a27.746,27.746,0,0,1-7.858,3.12l-.026.005a27.757,27.757,0,0,1-6.248.707c-.492,0-.975-.012-1.442-.037l-.067-.082v0l-.027-.03c-.028-.032-.062-.068-.1-.106l-.03-.034,0,0-.009-.01,0,0a7.181,7.181,0,0,0-1.8-1.426,6.988,6.988,0,0,0-6.761-.012,7.132,7.132,0,0,0-1.883,1.5,1.344,1.344,0,0,0-.168.185l-.026.03c-.455.022-.917.035-1.378.035a27.987,27.987,0,0,1-14.179-3.857,28.8,28.8,0,0,1-4.773-3.521c-.012-.014-.025-.026-.039-.039l-.3-.271c-1.228-1.114-1.882-1.691-2.24-1.967,0-.061,0-.122,0-.184v-.034c0-.111,0-.222,0-.333a29.818,29.818,0,0,1,.5-5.454l.016-.084c.153-.824.348-1.66.58-2.486l.122-.434-.4-.2a9.647,9.647,0,0,1,4.1-18.233,9.057,9.057,0,0,1,2.163.26,9.229,9.229,0,0,1,4.537,2.639l.307.324.364-.256a27.674,27.674,0,0,1,31.932,0l.364.256.307-.324a9.181,9.181,0,0,1,6.7-2.9,9.647,9.647,0,0,1,4.1,18.233l-.4.2.122.432c.226.808.419,1.634.573,2.456l.01.052a29.558,29.558,0,0,1,.514,5.517c0,.219,0,.432-.009.661v.01c-.2.173-.534.484-1.167,1.08m-22.713,8.837a4.442,4.442,0,0,1-.536,1.555,4.333,4.333,0,0,1-3.541,2.232c-.077,0-.156.005-.236.005-.046,0-.093,0-.148,0a4.4,4.4,0,0,1-4.163-3.8l-.006-.034a6.128,6.128,0,0,1,1.485-1.14,5.96,5.96,0,0,1,5.768.01,6.09,6.09,0,0,1,1.391,1.062c0,.036-.01.073-.015.111m32.131-2.515a2.359,2.359,0,0,0-1.578-1.142,5.01,5.01,0,0,0-.829-.084,8.443,8.443,0,0,0,1.447-4.752v-.147a2.482,2.482,0,0,0-2.137-2.42,8.2,8.2,0,0,0-1.021-.065,7.979,7.979,0,0,0-3.078.622c0-.029,0-.056,0-.086,0-.241,0-.482-.009-.723,0-.073-.006-.147-.007-.22-.005-.168-.01-.335-.017-.5,0-.083-.01-.165-.015-.247-.009-.158-.016-.316-.027-.473-.006-.089-.015-.179-.021-.267-.012-.15-.024-.3-.037-.45-.009-.1-.021-.2-.031-.3-.014-.138-.027-.276-.044-.414-.012-.106-.027-.211-.041-.316-.016-.132-.031-.262-.05-.393-.016-.112-.034-.221-.051-.333s-.036-.247-.057-.372-.041-.234-.061-.35-.038-.222-.06-.333a.694.694,0,0,0-.019-.1c-.133-.7-.292-1.408-.476-2.1a10.729,10.729,0,0,0-4.951-20.068,10.213,10.213,0,0,0-7.135,2.907,28.7,28.7,0,0,0-32.4,0,10.249,10.249,0,0,0-4.732-2.619,10.1,10.1,0,0,0-2.405-.288,10.729,10.729,0,0,0-4.948,20.068c-.188.712-.35,1.427-.482,2.134a.924.924,0,0,0-.024.127,30.915,30.915,0,0,0-.516,5.635v.009a7.85,7.85,0,0,0-2.89-.545,8.07,8.07,0,0,0-1.025.066,2.481,2.481,0,0,0-2.133,2.42v.145a8.438,8.438,0,0,0,1.448,4.752,5.01,5.01,0,0,0-.83.084,2.356,2.356,0,0,0-1.578,1.142,2.534,2.534,0,0,0-.231,2.015,12.865,12.865,0,0,0,3.859,5.93c.281.246.586.489.911.721.01.007.021.014.031.02a12.014,12.014,0,0,0,1.615.983.519.519,0,0,0,.7-.245.545.545,0,0,0-.239-.719,10.891,10.891,0,0,1-1.5-.917.377.377,0,0,0-.036-.025c-.284-.2-.553-.417-.8-.635a11.8,11.8,0,0,1-3.541-5.438,1.432,1.432,0,0,1,.133-1.139,1.292,1.292,0,0,1,.873-.637,4.064,4.064,0,0,1,1.578.011,8.07,8.07,0,0,0,2.8,1.878.52.52,0,0,0,.677-.306.542.542,0,0,0-.3-.7,7.015,7.015,0,0,1-2.542-1.745l-.033-.034a7.311,7.311,0,0,1-1.946-5v-.127a1.41,1.41,0,0,1,1.218-1.373,6.913,6.913,0,0,1,.893-.057,6.82,6.82,0,0,1,3.188.779c.263.153,1.745,1.5,2.3,2l.271.246a.5.5,0,0,0,.035.036,29.861,29.861,0,0,0,4.978,3.676,28.993,28.993,0,0,0,14.7,4c.513,0,1.026-.016,1.532-.043a5.44,5.44,0,0,0,4.769,4.192v1.581a.243.243,0,0,0-.007.029,3.336,3.336,0,0,1-2.265,2.542,3.216,3.216,0,0,1-3.277-.716.513.513,0,0,0-.739.027.547.547,0,0,0,.026.759,4.2,4.2,0,0,0,2.918,1.179,4.473,4.473,0,0,0,1.393-.226,2.525,2.525,0,0,1,4.948,0,4.451,4.451,0,0,0,1.4.229,4.2,4.2,0,0,0,2.913-1.173.547.547,0,0,0,.027-.759.513.513,0,0,0-.739-.03,3.218,3.218,0,0,1-3.28.711,3.329,3.329,0,0,1-2.254-2.541c-.005-.019-.011-.037-.017-.056v-1.558a5.383,5.383,0,0,0,4.116-2.741,5.553,5.553,0,0,0,.572-1.453c.535.032,1.093.05,1.663.05a28.821,28.821,0,0,0,6.457-.728l.022,0a28.785,28.785,0,0,0,8.171-3.24,29.393,29.393,0,0,0,4.85-3.546l.014-.014c.327-.288.823-.754,1.3-1.2s1.1-1.034,1.242-1.143a6.945,6.945,0,0,1,3.351-.862,7.087,7.087,0,0,1,.892.056,1.41,1.41,0,0,1,1.219,1.373v.128a7.321,7.321,0,0,1-1.973,5.033,7.08,7.08,0,0,1-2.554,1.752l-.031.012a.54.54,0,0,0-.354.668.521.521,0,0,0,.651.362,1.213,1.213,0,0,0,.119-.044,8.13,8.13,0,0,0,2.8-1.881,4.07,4.07,0,0,1,1.574-.011,1.293,1.293,0,0,1,.873.637,1.431,1.431,0,0,1,.133,1.139,11.791,11.791,0,0,1-3.543,5.44c-.246.216-.514.43-.8.632a.393.393,0,0,0-.036.025,10.957,10.957,0,0,1-1.5.917.544.544,0,0,0-.239.719.523.523,0,0,0,.471.3.51.51,0,0,0,.23-.055,12.184,12.184,0,0,0,1.618-.983.247.247,0,0,0,.028-.02,11.325,11.325,0,0,0,.908-.718,12.862,12.862,0,0,0,3.862-5.932,2.533,2.533,0,0,0-.231-2.015" transform="translate(-1011.541 -599.048)"/><path class="c" d="M1043.331,603.374a37.14,37.14,0,0,1,5.049.473.383.383,0,0,0,.438-.385.4.4,0,0,0-.343-.383,37.859,37.859,0,0,0-12.179,0,.4.4,0,0,0-.344.409.382.382,0,0,0,.376.365.323.323,0,0,0,.06,0,37.14,37.14,0,0,1,5.049-.473.566.566,0,0,1,.57.574v1.332a.484.484,0,0,1-.461.487,16.825,16.825,0,0,0-4.089.692.4.4,0,0,0-.288.427.381.381,0,0,0,.374.337.39.39,0,0,0,.107-.015,16.028,16.028,0,0,1,3.865-.665.481.481,0,0,1,.492.489v1.888a.546.546,0,0,1-.486.552,14.713,14.713,0,0,0-3.081.624.4.4,0,0,0-.286.427.378.378,0,0,0,.484.319,11.152,11.152,0,0,1,7.468-.007.383.383,0,0,0,.133.025.377.377,0,0,0,.353-.251.39.39,0,0,0-.22-.5,10.262,10.262,0,0,0-3.107-.666.546.546,0,0,1-.5-.553V607.06a.5.5,0,0,1,.517-.508,17.941,17.941,0,0,1,3.846.657.376.376,0,0,0,.468-.286.409.409,0,0,0-.3-.468,18.758,18.758,0,0,0-4.061-.681.5.5,0,0,1-.475-.506v-1.321a.567.567,0,0,1,.57-.574" transform="translate(-1005.626 -598.191)"/><path class="c" d="M1195.872,636.168h3.675a3.629,3.629,0,0,1-1.057-1.578,1.087,1.087,0,0,1-.277-.6V622.055a2.457,2.457,0,0,0-1.454-2.408,14.217,14.217,0,0,0-4.594-.815,10.667,10.667,0,0,0-6.383,1.9,20.015,20.015,0,0,1,4.322-.581,9.083,9.083,0,0,1,4.783,1.26l.25.152-.138.261a4.954,4.954,0,0,1-2.42,2.2,43.263,43.263,0,0,1-4.988,1.58c-2.754.762-4.094,2.661-4.094,5.809a4.331,4.331,0,0,0,1.815,3.793,7,7,0,0,0,4.224,1.186,8.66,8.66,0,0,0,5.018-2.127l.907-.693-.451,1.065a2.573,2.573,0,0,0-.128.345c-.005.024-.027.161.234.617.219.384.465.569.757.569m-.837-12.223v8.006l-.112.093a7.031,7.031,0,0,1-4.358,1.885c-2.275,0-3.477-1.268-3.477-3.667a4,4,0,0,1,1.513-3.512,22.167,22.167,0,0,1,3.416-1.355,6.274,6.274,0,0,0,2.5-1.663l.518-.555Z" transform="translate(-969.869 -594.254)"/><path class="c" d="M1135.059,646.219c4.581,0,7.475-2.295,8.85-7.017.507-1.738.763-5.456.763-11.052a53.93,53.93,0,0,1,.27-6.659c.28-1.135.555-1.717.9-1.917.061-.034.19-.094.57-.25l-8.8.209a11.562,11.562,0,0,0-7.189,2.741,9.01,9.01,0,0,0-3.547,7.194,7.4,7.4,0,0,0,1.81,5.136,6.254,6.254,0,0,0,4.87,2.066,12.1,12.1,0,0,0,7.479-2.7l.47-.363.012.6a18.635,18.635,0,0,1-.89,6.476c-.949,2.712-2.5,4.086-4.6,4.086a4.41,4.41,0,0,1-2.495-.873,9.861,9.861,0,0,1-2.013-2.236,10.682,10.682,0,0,1-1.177-1.9,6.415,6.415,0,0,1-2.572,2.442l2.121,2.24a8.992,8.992,0,0,0,5.165,1.772m4.424-13.117a5.984,5.984,0,0,1-4.182,1.847,4.3,4.3,0,0,1-3.429-1.7,6.155,6.155,0,0,1-1.4-3.636,7.338,7.338,0,0,1,2.452-6.146,8.963,8.963,0,0,1,6.162-2.215h2.958l-.142.22c.531.215.8,1.047.83,2.594a15.306,15.306,0,0,1-.768,5.079,9.523,9.523,0,0,1-2.479,3.958" transform="translate(-983.591 -594.135)"/><path class="c" d="M1158,636.168h3.675a3.618,3.618,0,0,1-1.057-1.578,1.087,1.087,0,0,1-.277-.6V622.055a2.457,2.457,0,0,0-1.454-2.408,14.218,14.218,0,0,0-4.594-.815,10.668,10.668,0,0,0-6.383,1.9,20.019,20.019,0,0,1,4.322-.581,9.084,9.084,0,0,1,4.783,1.26l.25.152-.138.261a4.954,4.954,0,0,1-2.42,2.2,43.223,43.223,0,0,1-4.989,1.58c-2.753.762-4.092,2.661-4.092,5.809a4.331,4.331,0,0,0,1.815,3.793,7,7,0,0,0,4.223,1.186,8.654,8.654,0,0,0,5.018-2.127l.907-.693-.45,1.065a2.579,2.579,0,0,0-.128.345c-.005.024-.027.161.234.617.219.384.465.569.757.569m-.837-12.223v8.006l-.112.093a7.031,7.031,0,0,1-4.358,1.885c-2.275,0-3.477-1.268-3.477-3.667a4,4,0,0,1,1.513-3.512,22.16,22.16,0,0,1,3.416-1.355,6.269,6.269,0,0,0,2.5-1.663l.519-.555Z" transform="translate(-979.047 -594.254)"/></g></g><g transform="translate(1011.541 599.048)"><path class="c" d="M1183.942,627.082l2.117-2.291-5.569-5.418-.093-.092V605.19h-3.077v11.1l-.508-.494-7.2-7.006-2.117,2.291,9.734,9.469.094.091v19.276h3.077V623.632l.508.494Z" transform="translate(-973.748 -597.56)"/><g class="b"><path class="c" d="M1246.626,622.766a3.2,3.2,0,0,0-1.948-2.91,7.756,7.756,0,0,0-3.737-.885,8.482,8.482,0,0,0-4.992,1.464l-.174.12-.172-.123-.412-.3a4.383,4.383,0,0,0-2.19-.6,4.753,4.753,0,0,0-.512.029l-1.112.123a1.517,1.517,0,0,1-.2.53,2.86,2.86,0,0,1,2.02,2.823l-.1,11.264a2.361,2.361,0,0,1-.647,1.385l-.465.467h5.574c-.855-.852-1.012-1.174-1.039-1.386l-.147-1.062,0-11.595c0-1.277,2.013-1.425,3.526-1.425a4.311,4.311,0,0,1,2.235.562c.18.086.546.337,1.368,1.389l.024.027.015.034a3.452,3.452,0,0,1,.243,2.042,4.168,4.168,0,0,1-1.04,1.959,11.373,11.373,0,0,1-1.127,1.114c3.326-1.1,5.009-2.8,5.009-5.053" transform="translate(-958.315 -594.22)"/><path class="c" d="M1219.889,619.533a7.924,7.924,0,0,0-5.967,2.419l-.232.244-.214-.262-.75-.919a5.914,5.914,0,0,0-4.012-1.481,9.752,9.752,0,0,0-5.246,1.645l-.46.291v-1.612h-4.387a3.725,3.725,0,0,1,1.208,2.2V634.22a2.36,2.36,0,0,1-.583,1.569l-.616.606h6.376l-.128-.7-1.275-.87-.04-.027-.03-.039a2.451,2.451,0,0,1-.525-1.533v-9.385c0-.507.446-1.025,1.4-1.63a5.287,5.287,0,0,1,2.7-.963,3.819,3.819,0,0,1,3.429,1.88,7.146,7.146,0,0,1,.994,3.891,17.1,17.1,0,0,1-1.99,8.029l-.057,1.343h5.737l-.3-.908c-1.428-1.379-1.627-1.951-1.641-2.295v-.032l.006-.031.072-.447.006-.041.019-.037a16.353,16.353,0,0,0,1.739-5.531,10.07,10.07,0,0,0-.727-3.634l-.072-.183.13-.144a5.433,5.433,0,0,1,4.171-1.86,3.373,3.373,0,0,1,3.03,2.124,7.942,7.942,0,0,1,.835,3.7,14.335,14.335,0,0,1-2.223,7.966l-.258,1.357h5.748l-.271-.914c-1.424-1.38-1.622-1.951-1.635-2.295v-.035l.005-.034.073-.4.009-.056.03-.05,1.48-2.486a7.7,7.7,0,0,0,.634-3.072,8.657,8.657,0,0,0-1.513-5.282,5.433,5.433,0,0,0-4.681-2.241" transform="translate(-966.204 -594.084)"/><path class="c" d="M1226.613,613.844c-.062,0-.127,0-.193.005-1.958.078-2.185.981-2.185,1.655.14,1.1.855,1.631,2.245,1.631,2.147-.219,2.147-1.319,2.147-1.681a1.753,1.753,0,0,0-2.014-1.61" transform="translate(-959.997 -595.463)"/><path class="c" d="M1229.324,634.84a2.488,2.488,0,0,1-.154-.994V619.533h-6.283a3.561,3.561,0,0,0,.957.872,3.444,3.444,0,0,0,.913.386,2.386,2.386,0,0,1,1.234,2.36v10.694a2.507,2.507,0,0,1-.523,1.559l-.615.617h5.4c-.737-.75-.89-1.016-.929-1.183" transform="translate(-960.323 -594.084)"/><path class="c" d="M1111.163,619.153a8.3,8.3,0,0,0-6.2,2.358,8.754,8.754,0,0,0-2.3,6.359,8.706,8.706,0,0,0,8.69,8.693,8.026,8.026,0,0,0,7.444-4.428,9.714,9.714,0,0,1-1.509,1.247,7.984,7.984,0,0,1-4.527,1.461,5.9,5.9,0,0,1-4.79-2.267,7.894,7.894,0,0,1-1.717-5.156c0-.027,0-.045,0-.062l-.037-.293.278-.1,11.92-2.172a10.262,10.262,0,0,0-2.528-4.1,6.926,6.926,0,0,0-4.722-1.542m3.5,4.718-8.144,1.667-.569.115.232-.544q.533-1.241,1.066-2.51a4.331,4.331,0,0,1,3.292-2.124,3.71,3.71,0,0,1,.508-.034,3.947,3.947,0,0,1,2.229.716,3.7,3.7,0,0,1,1.62,2.342l.068.309Z" transform="translate(-989.458 -594.176)"/></g><path class="c" d="M1101.681,605.115l-8.977,7.223-.186.149-.186-.149-9.084-7.306-.026-.02-3.231,1.24v33.706h3.142V624.141l.116-.092,9.084-7.31.186-.152.186.152,8.977,7.223.117.093v15.9h3.142v-33.75l-3.128-1.2ZM1083.132,619.4V609.04l.489.393,6.047,4.864.3.245-.3.243-6.047,4.864-.489.393Zm18.178.158-5.941-4.778-.3-.243.3-.245,5.941-4.778.488-.393v10.828Z" transform="translate(-994.953 -597.603)"/><g class="b"><path class="c" d="M1125.157,634.84a2.488,2.488,0,0,1-.154-.994V619.533h-6.282a3.562,3.562,0,0,0,.957.872,3.442,3.442,0,0,0,.913.386,2.385,2.385,0,0,1,1.234,2.36v10.694a2.5,2.5,0,0,1-.524,1.559l-.614.617h5.4c-.736-.75-.888-1.016-.928-1.183" transform="translate(-985.567 -594.084)"/><path class="c" d="M1122.445,613.844c-.062,0-.128,0-.192.005-1.958.078-2.185.981-2.185,1.655.141,1.1.855,1.631,2.245,1.631,2.147-.219,2.147-1.319,2.147-1.681a1.753,1.753,0,0,0-2.014-1.61" transform="translate(-985.241 -595.463)"/></g></g></g></svg>