<svg xmlns="http://www.w3.org/2000/svg" width="109.27" height="109.425" viewBox="0 0 109.27 109.425"><defs><style>.a{fill:#b3890e;}</style></defs><g transform="translate(-1310.488 372.355)"><path class="a" d="M1311.1-262.93a4.4,4.4,0,0,1-.611-1.47,31.412,31.412,0,0,1,5.9-18.667c.242-.346.478-.7.741-1.082a11.082,11.082,0,0,1-2.4-6.82c-.02-1.44.492-1.94,1.889-1.552,1.827.508,3.6,1.2,5.521,1.856a13.788,13.788,0,0,0,3.345-11.861c-.7-3.574-1.766-7.079-2.717-10.6a17.657,17.657,0,0,1,3.78-16.91c2.229-2.656,4.164-5.559,6.215-8.364a7.111,7.111,0,0,0,.541-1.143c-.893.067-1.686.161-2.481.179-1.355.031-1.782-.418-1.543-1.726a13.679,13.679,0,0,1,3.6-7.346,1.358,1.358,0,0,0,.4-1.557,5.4,5.4,0,0,1,2.562-6.3,2.206,2.206,0,0,0,.9-.819,24.057,24.057,0,0,1,14.7-12.795c11.057-3.74,21.939-3.365,32.332,2.35a22.244,22.244,0,0,1,9.593,10.276,2.165,2.165,0,0,0,.841.875,5.452,5.452,0,0,1,2.674,6.539,1.185,1.185,0,0,0,.379,1.368,13.809,13.809,0,0,1,3.656,7.434c.233,1.258-.187,1.73-1.457,1.7-.81-.017-1.619-.113-2.531-.181a22.817,22.817,0,0,0,3.72,5.948c.99,1.211,1.982,2.423,3.009,3.6a17.376,17.376,0,0,1,3.8,16.9c-.85,3.148-1.774,6.277-2.537,9.445a12.415,12.415,0,0,0,.51,7.864,6.094,6.094,0,0,1,.629-.954,13.758,13.758,0,0,1,7.749-3.931c1.243-.223,1.691.205,1.666,1.5-.074,3.775-1.572,7.435-6.334,9.91,1.051,1.354,2.1,2.7,3.136,4.042a33.755,33.755,0,0,1,6.927,14.8c.191,1.073.365,2.149.548,3.224v4.27Zm28.864-5.476a25.257,25.257,0,0,1,23.078-21.149,24.591,24.591,0,0,1,17.5,5.1,25.548,25.548,0,0,1,10.231,19.319h26.821a30.244,30.244,0,0,0-2.611-11.617c-1.832-4.025-4.624-7.394-7.313-10.841-.513-.658-.946-.943-1.755-.626a5.807,5.807,0,0,1-1.46.281c-1.429.161-1.961-.36-1.707-1.749.179-.973.531-1.914.7-2.888a3.4,3.4,0,0,0-.067-1.681,15.4,15.4,0,0,1-.755-8.8c.728-3.247,1.667-6.448,2.521-9.666.984-3.7,1.573-7.48-.188-11.041a36.03,36.03,0,0,0-4.331-6.408c-2.5-3.113-5.049-6.16-6.3-10.047a1.205,1.205,0,0,0-.338-.529c-1.2-1.03-2.419-2.043-3.594-3.031l-3.942,1.433c0,.167,0,.448,0,.729-.072,6.224-.048,12.452-.246,18.672-.2,6.391-.665,12.754-2.483,18.96a21.644,21.644,0,0,0-.69,11.465,11.183,11.183,0,0,0,4.011,6.2c-1.656-7.881.625-13.572,5.945-14.969l.815,1.811a10.008,10.008,0,0,0-4.276,3.779c1.276.609,2.514,1.146,3.7,1.776a13.562,13.562,0,0,1,7.714,12.35c.1,4.089.021,8.182.021,12.273v.962h-2.128v-1.226c0-3.949.1-7.9-.023-11.846-.208-6.862-4.578-10.331-10.176-12.072-.637,3.279.31,6.254,1.714,9.139.289.593.635,1.169.077,1.758-.61.643-1.235.272-1.838-.057-5.495-3-8.284-7.6-8.15-13.893a1.219,1.219,0,0,0-.839-1.351c-2.718-1.224-5.406-2.514-8.121-3.747a1.526,1.526,0,0,1-1.052-1.634c.06-1.287.016-2.578.016-3.972a28.651,28.651,0,0,0-2.745,1.052,5.623,5.623,0,0,1-5.286-.045c-.8-.387-1.678-.628-2.624-.973,0,1.351-.061,2.527.019,3.693a1.77,1.77,0,0,1-1.239,1.954c-2.943,1.324-5.852,2.721-8.781,4.094,0,.256,0,.467,0,.68s0,.427,0,.64c-.039,6.258-2.924,10.761-8.455,13.585a1.62,1.62,0,0,1-1.483-.06,1.822,1.822,0,0,1-.083-1.506c.364-1.107.955-2.139,1.313-3.247a10.976,10.976,0,0,0,.423-6.232c-1.071.492-2.072.934-3.057,1.407a11.61,11.61,0,0,0-7.066,11.1c-.046,4.945-.01,9.89-.01,14.835v1.149h57.086a2.457,2.457,0,0,0-1.419-2.852,11.5,11.5,0,0,1-3.366-2.576c-1.28-1.515-2.459-1.661-4.21-.838a6.766,6.766,0,0,1-6.88-.765,3.486,3.486,0,0,1-1.448-4.715,19.619,19.619,0,0,1,2.791-3.98,39.707,39.707,0,0,1,3.357-3.1c-2.548-1.962-8.595-3.78-11.715-3.358.287.458.592.89.841,1.352,1.177,2.181.7,4.139-1.45,5.367a13.041,13.041,0,0,1-3.068,1.152c-2.015.544-2.067.567-1.663,2.6.021.1.07.2.085.308a15,15,0,0,1-1.192,9.147c-1.207,2.348-3.184,2.5-4.761.385a4.876,4.876,0,0,0-3.387-1.959c-2.8-.435-5.794-.065-8.232-2.155l-.8,3.043Zm5.932-70.414a63.12,63.12,0,0,0,1.957,15.6c.946,3.772,2.391,7.273,5.63,9.77a37.352,37.352,0,0,0,11.141,5.664,1.925,1.925,0,0,0,1.138-.045,38.75,38.75,0,0,0,9.661-4.639,14.6,14.6,0,0,0,5.877-7.367,62.544,62.544,0,0,0,3.006-22.253c-.006-.218-.218-.586-.387-.619-1.98-.394-3.372-1.749-4.919-2.875a6.807,6.807,0,0,0-2.189-1.028,6.178,6.178,0,0,0-5.55,1.411,13.954,13.954,0,0,1-4.095,2.363c-2.891.874-5.5-.011-7.818-1.947a9.379,9.379,0,0,0-2.981-1.776,5.54,5.54,0,0,0-5.4,1.128c-1.407,1.136-2.773,2.341-4.641,2.716-.184.037-.4.45-.415.7C1345.87-340.956,1345.9-339.887,1345.9-338.82Zm-5.18,43.151a10.341,10.341,0,0,0-4.334-3.833l.927-1.91a11.507,11.507,0,0,1,5.462,4.921c1.726,3.268,1.38,6.642.357,10.094a10.313,10.313,0,0,0,3.831-5.341,18.443,18.443,0,0,0-.124-10.729,79.523,79.523,0,0,1-2.818-19.555c-.19-6.435-.179-12.876-.255-19.314,0-.386,0-.772,0-1l-4.149-1.5a5.176,5.176,0,0,1-1.111,1.253c-2.193,1.3-2.844,3.627-4.083,5.606a70.693,70.693,0,0,1-6.012,8.12c-3.609,4.262-5.06,8.982-3.672,14.448.785,3.091,1.707,6.147,2.492,9.238,1.072,4.223,1.047,8.382-1.089,12.321-.705,1.3-1.537,2.536-2.332,3.836a12.443,12.443,0,0,1,3.609,7.07c.32,1.886-.2,2.394-2.122,2.051a16.141,16.141,0,0,1-6.549-2.694,29.157,29.157,0,0,0-6.074,17.44h16.575c0-5.418-.032-10.753.009-16.088.046-6.033,2.9-10.317,8.28-12.954C1338.554-294.687,1339.591-295.147,1340.716-295.669Zm.187-50.221a5.815,5.815,0,0,0,4.354,1.136c1.736-.187,2.974-1.275,4.233-2.315a7.615,7.615,0,0,1,7.386-1.594,15.123,15.123,0,0,1,4.262,2.5,5.831,5.831,0,0,0,5.586,1.195,12.751,12.751,0,0,0,3.408-2.1,8.236,8.236,0,0,1,10.6,0c.642.5,1.26,1.051,1.946,1.489a5.552,5.552,0,0,0,6.618-.4c-.373-1.456-.8-2.845-1.072-4.264q-.449-2.363,1.882-1.817c1.571.367,3.107.882,4.67,1.335a2.981,2.981,0,0,0-.8-3.184,3.551,3.551,0,0,0-3.778-.572c-1.069.455-2.18.813-3.264,1.235-.2.076-.342.272-.529.38-.425.246-.86.672-1.293.675a10.188,10.188,0,0,1-9.01-4.542,1.488,1.488,0,0,0-1.776-.668c-1.646.274-2.78,1.37-4,2.333a8.265,8.265,0,0,1-4.99,1.857,9.424,9.424,0,0,1-6.2-2.4,17.1,17.1,0,0,0-3.439-1.776c-.669-.3-1.13-.006-1.568.637a10.3,10.3,0,0,1-9,4.575c-.362,0-.95-.1-1.046-.325-.351-.811-1.068-.754-1.706-.961-.7-.228-1.355-.627-2.065-.826a6.808,6.808,0,0,0-2.454-.41c-1.947.214-3.191,2.548-2.373,3.945,1.565-.45,3.075-.954,4.62-1.309s2.19.25,1.893,1.815C1341.727-348.83,1341.3-347.441,1340.9-345.891Zm14.845-13.761c2.177.211,3.814,1.436,5.428,2.752a5.89,5.89,0,0,0,7.888.009c1.614-1.314,3.252-2.532,5.395-2.762-.276-1.279-.609-2.472-.776-3.687-.18-1.312.353-1.781,1.664-1.585a12.181,12.181,0,0,1,10.071,7.7c.257.608.492,1.226.8,2.008l4.823-1.874c-.242-.431-.422-.774-.622-1.1a22.33,22.33,0,0,0-10.949-9.125,38.09,38.09,0,0,0-23.1-1.793A25.737,25.737,0,0,0,1342-361.16c-1.083,1.226-1.945,2.648-2.962,4.055l4.866,1.824c.206-.22.241-.241.251-.271.107-.3.2-.606.314-.9a12.363,12.363,0,0,1,10.305-8.461c1.4-.213,1.966.3,1.756,1.7C1356.357-362.061,1356.036-360.932,1355.749-359.651Zm1.027,92.034a15.777,15.777,0,0,0,.85-1.757,14.38,14.38,0,0,0,.428-7.353c-.553-2.885.222-4.054,3.057-4.784a15.02,15.02,0,0,0,2.96-1.111,1.309,1.309,0,0,0,.546-2,17.187,17.187,0,0,0-1.914-2.395,1.243,1.243,0,0,0-.97-.2,23.263,23.263,0,0,0-17.507,12.519c-.678,1.269-.487,1.858.819,2.521a4.988,4.988,0,0,0,1.505.491c1.263.186,2.536.31,3.807.435,2.347.231,4.458.892,5.8,3.042A4.4,4.4,0,0,0,1356.775-267.617Zm27.037-52.643a5.56,5.56,0,0,0-.236.512,17.454,17.454,0,0,1-7.958,9.756c-1.028.636-2.432,1.116-2.917,2.054-.508.981-.166,2.43-.091,3.669a1.4,1.4,0,0,0,.634,1c1.543.792,3.131,1.5,4.7,2.23.876.408,1.754.811,2.538,1.173C1382.253-306.573,1383.833-313.188,1383.812-320.26Zm-34.088,20.346c-.037,0,.043.023.1,0a44.019,44.019,0,0,1,5.126-2.322c2.285-.715,3-2.025,2.759-4.347a2.63,2.63,0,0,0-1.506-2.506c-4.285-2.269-7.763-5.352-9.381-10.124-.105-.311-.238-.612-.431-1.1C1346.381-313.194,1347.966-306.55,1349.724-299.914Zm29.554,17.263a35.256,35.256,0,0,0-3.076,2.62,24.15,24.15,0,0,0-2.952,3.729c-.679,1.087-.319,1.8.776,2.48a5.436,5.436,0,0,0,5.375.189c2.536-1.1,3.258-.887,5.2,1.014.908.89,1.925,1.668,3.115,2.687A23.007,23.007,0,0,0,1379.278-282.651Zm-54.179.461c-.737-4.037-4.393-7.6-7.969-7.85C1316.891-286.505,1320.287-283.128,1325.1-282.189Zm50.96-80.356c.794,4.686,4.688,8.547,7.905,7.916A9.966,9.966,0,0,0,1376.06-362.545Zm22.42,20.827a9.757,9.757,0,0,0-7.855-7.957C1391.109-345.368,1394.665-341.721,1398.48-341.719Zm-44.331-20.834a9.757,9.757,0,0,0-7.809,8C1349.949-354.43,1353.421-357.952,1354.149-362.553Zm-22.4,20.813c3.748.069,7.247-3.5,7.863-7.925C1335.9-349.236,1332.368-345.7,1331.745-341.739Zm81.383,43.56c-3.8.429-7.96,4.615-7.889,7.882C1409.928-291.305,1413.087-294.426,1413.128-298.179Z" transform="translate(0)"/><path class="a" d="M1587.867-205.843c-2.33-.033-3.408-.963-3.551-2.991-.216-3.055.668-4.163,3.689-4.627.691-2.762,1.952-3.768,4.408-3.518,2.095.213,2.919,1.318,3.089,4.137,2.778.412,3.711,1.223,3.738,3.249.029,2.177-.918,3.068-3.747,3.528-.447,3.016-1.282,3.967-3.519,4C1589.458-202.017,1588.391-202.988,1587.867-205.843Zm5.388-3.732a1.518,1.518,0,0,0-1.55-1.424,1.462,1.462,0,0,0-1.4,1.462,1.515,1.515,0,0,0,1.488,1.488A1.557,1.557,0,0,0,1593.255-209.575Zm-5.025-1.547c-.483.111-1.38.15-1.42.356a7.669,7.669,0,0,0,.013,2.555c.017.114.9.1,1.407.147Zm4.963,5.12h-2.959c-.078,1.3.333,1.8,1.516,1.811C1592.912-204.181,1593.29-204.643,1593.193-206Zm.024-7.064c.165-1.306-.107-1.683-1.252-1.733s-1.621.485-1.593,1.733Zm2.31,2.352a3.337,3.337,0,0,0-.131.518c-.008.561,0,1.122,0,1.938.583-.191,1.21-.213,1.455-.53a1.427,1.427,0,0,0,.026-1.351C1596.64-210.468,1596.017-210.523,1595.527-210.713Z" transform="translate(-195.714 -111.039)"/><path class="a" d="M1478.381-189.646l1.551-1.378a7.576,7.576,0,0,0,5.179,2.179,7.263,7.263,0,0,0,5.213-2.2l1.53,1.36C1489.067-185.717,1481.527-185.692,1478.381-189.646Z" transform="translate(-120.012 -129.606)"/><path class="a" d="M1461.259-261.137l-1.077,1.8a8.34,8.34,0,0,0-8.327,0l-1.029-1.761C1453.4-263.092,1458.028-263.124,1461.259-261.137Z" transform="translate(-100.316 -78.447)"/><path class="a" d="M1527.158-261.138l-1.06,1.781a8.279,8.279,0,0,0-8.307.015l-1.077-1.775A9.862,9.862,0,0,1,1527.158-261.138Z" transform="translate(-147.413 -78.437)"/><path class="a" d="M1520.122-234l.724-1.983c.4.192.717.328,1.02.494a5.106,5.106,0,0,0,5.266-.134,11.251,11.251,0,0,1,1.85-.632v2.137C1526.133-232.362,1523.217-232.048,1520.122-234Z" transform="translate(-149.85 -97.285)"/><path class="a" d="M1452.749-233.9V-235.9a4.722,4.722,0,0,1,1.531.319,5.351,5.351,0,0,0,6.112.06,3.157,3.157,0,0,1,.531-.181l.716,1.913C1458.66-231.787,1455.715-232.076,1452.749-233.9Z" transform="translate(-101.69 -97.543)"/><path class="a" d="M1384.425-178.6c1.935-1.753,3.377-1.857,4.922-.356,1.571,1.527,1.525,3.026.037,4.806a13.5,13.5,0,0,1,1.154,3.519,3.768,3.768,0,0,1-1.251,2.344c-1.367,1.373-2.9,1.914-5.285.023-2.008,1.777-3.427,1.729-5.308-.18-1.767-1.794-1.764-3.267.011-5.253-1.506-2.4-1.383-3.957.44-5.535C1380.857-180.718,1382.156-180.563,1384.425-178.6Zm-.528,3.381a1.57,1.57,0,0,0-1.544,1.681,1.641,1.641,0,0,0,1.623,1.63,1.638,1.638,0,0,0,1.654-1.705A1.578,1.578,0,0,0,1383.9-175.223Zm1.955,5.543c.722.618,1.347.6,2.125-.254.7-.768.623-1.268.131-1.709Zm-5.855-2.1c-.047.127-.446.722-.3.912a8.083,8.083,0,0,0,1.8,1.683c.109.078.633-.426.966-.66l-.511.221Zm2.428-5.53a1.073,1.073,0,0,0-1.791-.305c-.958.73-1.021,1.3-.273,2.269Zm5.269,2.086c.232-.626.578-1.106.513-1.521a1.334,1.334,0,0,0-.915-.883c-.41-.048-.87.325-1.361.538Z" transform="translate(-47.809 -137.335)"/></g></svg>