<svg xmlns="http://www.w3.org/2000/svg" xmlns:xlink="http://www.w3.org/1999/xlink" width="454.558" height="18.433" viewBox="0 0 454.558 18.433"><defs><style>.a{fill:none;}.b{clip-path:url(#a);}.c{fill:#b38529;}</style><clipPath id="a"><path class="a" d="M0,8.062H454.558V-10.371H0Z" transform="translate(0 10.371)"/></clipPath></defs><g transform="translate(0 10.371)"><g class="b" transform="translate(0 -10.371)"><g transform="translate(330.53 0)"><path class="c" d="M45.238,0s-3.3,5.121-6.592,7.728H-56.909a1.268,1.268,0,0,0-1.285,1.249,1.268,1.268,0,0,0,1.285,1.248h94.9c3.5,2.389,7.245,8.208,7.245,8.208S56,9.3,65.834,9.3c-9.747,0-20.6-9.3-20.6-9.3" transform="translate(58.194)"/></g></g><g transform="translate(212.119 -9.31)"><path class="c" d="M0,3.576l15.053,8.176L29.59,3.576,15.053-4.6Z" transform="translate(0 4.6)"/></g><g class="b" transform="translate(0 -10.371)"><g transform="translate(-0.001 0)"><path class="c" d="M53.79,3.494H-41.664C-45.067.986-48.6-4.495-48.6-4.495s-10.764,9.134-20.6,9.134c9.747,0,20.6,9.3,20.6,9.3s3.494-5.423,6.88-7.948H53.79a1.248,1.248,0,1,0,0-2.5" transform="translate(69.195 4.495)"/></g><g transform="translate(149.548 4.772)"><path class="c" d="M24.168,1.4H-26.711c-.259-1.838-1.116-3.2-2.145-3.2-1.232,0-2.232,1.941-2.232,4.335s1,4.333,2.232,4.333c.988,0,1.815-1.251,2.11-2.977H24.168a1.267,1.267,0,0,0,1.285-1.248A1.267,1.267,0,0,0,24.168,1.4" transform="translate(31.089 1.798)"/></g><g transform="translate(129.503 4.773)"><path class="c" d="M.976,0C-.255,0-1.256,1.941-1.256,4.333s1,4.335,2.232,4.335S3.209,6.727,3.209,4.333,2.21,0,.976,0" transform="translate(1.256)"/></g><g transform="translate(139.526 4.773)"><path class="c" d="M.976,0C-.255,0-1.256,1.941-1.256,4.333s1,4.335,2.232,4.335S3.209,6.727,3.209,4.333,2.21,0,.976,0" transform="translate(1.256)"/></g><g transform="translate(320.831 4.773)"><path class="c" d="M.976,0C-.257,0-1.256,1.941-1.256,4.333s1,4.335,2.232,4.335S3.209,6.727,3.209,4.333,2.208,0,.976,0" transform="translate(1.256)"/></g><g transform="translate(310.808 4.773)"><path class="c" d="M.976,0C-.257,0-1.256,1.941-1.256,4.333s1,4.335,2.232,4.335S3.209,6.727,3.209,4.333,2.208,0,.976,0" transform="translate(1.256)"/></g><g transform="translate(248.709 4.773)"><path class="c" d="M23.753,0c-.986,0-1.815,1.251-2.11,2.975H-29.271a1.268,1.268,0,0,0-1.285,1.249,1.268,1.268,0,0,0,1.285,1.248H21.608c.26,1.838,1.116,3.2,2.145,3.2,1.232,0,2.232-1.941,2.232-4.335S24.985,0,23.753,0" transform="translate(30.556)"/></g></g></g></svg>