<svg xmlns="http://www.w3.org/2000/svg" width="109.355" height="109.471" viewBox="0 0 109.355 109.471"><defs><style>.a{fill:#b3890e;}</style></defs><path class="a" d="M-635.837-261.419a29.088,29.088,0,0,1-12.43-4.59.84.84,0,0,0-1.125.1,33.985,33.985,0,0,0-9.077,11.929.982.982,0,0,0,0,1.071c1.676,2.355,2.818,5.016,4.293,7.487a3.767,3.767,0,0,0,2.33,1.834,18.317,18.317,0,0,1,3.3,1.2,4.713,4.713,0,0,1,2.707,6.005,29.808,29.808,0,0,1-2.063,5.039,35.479,35.479,0,0,0-1.982,4.584,2.243,2.243,0,0,0,.186,1.954,18.1,18.1,0,0,1,2.521,11.437,1.035,1.035,0,0,0,.6,1.083,36.26,36.26,0,0,0,5.883,3.19c1.263.56,1.6,1.525,1,2.552-.505.869-1.319,1.09-2.47.6a36.542,36.542,0,0,1-13.082-9.225,35.849,35.849,0,0,1-9.4-20.523c-1.354-12.625,2.706-23.333,12-32,.7-.655.8-.951.042-1.608a59.982,59.982,0,0,1-13.661-17.991,1.991,1.991,0,0,1,.358-2.747c7.278-6.265,15.293-11.154,24.826-13.14,8.82-1.838,16.627.465,23.623,5.939.388.3.779.6,1.145.933a1.681,1.681,0,0,1,.328,2.583,1.632,1.632,0,0,1-2.511.109,40.324,40.324,0,0,0-5.421-3.733c-3.2-1.8-7.694-3.052-10.51-2.874.789,1.091,1.529,2.126,2.281,3.152q5.306,7.242,10.611,14.485a2.439,2.439,0,0,0,1.631,1.074c4.014.753,8.016,1.569,12.024,2.352a6.7,6.7,0,0,0,1.068.007c-.409-.682-.724-1.229-1.058-1.763a74.652,74.652,0,0,0-4.384-6.222,1.661,1.661,0,0,1,.162-2.586,1.652,1.652,0,0,1,2.56.432,62.68,62.68,0,0,1,6.638,10.03,4.578,4.578,0,0,0,1.456,1.694,45.049,45.049,0,0,1,6.94,6.014c.385-.307.156-.6.117-.868-.6-4.213-.628-8.38,1.047-12.4a21.69,21.69,0,0,1,7.682-9.225A42.042,42.042,0,0,1-572-300.358a1.908,1.908,0,0,1,2.409.967,41.331,41.331,0,0,1,5.052,14.616,21.868,21.868,0,0,1-1,10.851c-1.842,4.815-5.386,8.158-9.614,10.876a41.3,41.3,0,0,1-9.564,4.423c-.813.266-.969.562-.637,1.373A43.917,43.917,0,0,1-582.1-237.7a45,45,0,0,1-10.892,27.24,44.7,44.7,0,0,1-26.19,15.261,44.386,44.386,0,0,1-33-6.229c-11.637-7.382-18.529-18.055-20.883-31.623a43.361,43.361,0,0,1-.013-14.019c.258-1.69,1.569-2.419,2.781-1.611a1.986,1.986,0,0,1,.667,2.25,39.438,39.438,0,0,0-.421,7.811,40.8,40.8,0,0,0,8.958,24.531,40.75,40.75,0,0,0,27.908,15.845,41.115,41.115,0,0,0,33.521-10.436,40.373,40.373,0,0,0,13.5-24.357c2.112-12.992-1.153-24.613-9.638-34.726a44.742,44.742,0,0,0-6.421-6.088,1.151,1.151,0,0,0-1.755.057,24.207,24.207,0,0,1-2.586,2.038c-.787.526-.617.813.045,1.276A36.268,36.268,0,0,1-594-255.346a37.086,37.086,0,0,1,3.131,18.252,37.036,37.036,0,0,1-30.973,33.529,33.04,33.04,0,0,1-9.837.3,1.688,1.688,0,0,1-1.662-2,1.708,1.708,0,0,1,2.145-1.494,29.5,29.5,0,0,0,8.59-.255,33.071,33.071,0,0,0,23.563-15.81,32.865,32.865,0,0,0,4.773-19.326c-.067-1.393-.322-2.778-.523-4.162-.067-.463-.2-.944-.873-.555a25.22,25.22,0,0,0-5.589,4.057c-2,2.058-2.145,4.581-1.858,7.209.156,1.427.447,2.841.577,4.27.29,3.189-1.027,5.844-2.968,8.224-2.221,2.724-4.819,4.931-8.425,5.591a5.081,5.081,0,0,1-5.547-2.623,13.123,13.123,0,0,1-1.357-6.036c-.116-3.975-.162-7.952-.233-11.929a11.372,11.372,0,0,0-.453-2.905,1.257,1.257,0,0,0-1.677-1.022,69.965,69.965,0,0,1-7.191.972c-4.055.268-7.638-.7-9.733-4.623-2.214-4.151-1.823-8.158.781-12A21.207,21.207,0,0,1-635.837-261.419Zm18.324,27.269c0,1.9-.08,3.3.019,4.7a33.7,33.7,0,0,0,.607,6.427c.544,2.035,1.48,2.567,3.432,1.8a12.784,12.784,0,0,0,6.7-6.336,5.951,5.951,0,0,0,.71-3.508c-.181-1.577-.392-3.15-.583-4.725a11.265,11.265,0,0,1,4-10.555,31.511,31.511,0,0,1,5.766-3.822c.781-.412.888-.8.587-1.594a33.928,33.928,0,0,0-13.25-16.582,1.674,1.674,0,0,0-2.121,0,46.433,46.433,0,0,1-16.337,6.563c-.589.106-1.238-.008-1.759.373-2.044,1.492-4.271,2.75-5.938,4.725a8.594,8.594,0,0,0-2.328,6.317,5.925,5.925,0,0,0,6.033,5.833,36.446,36.446,0,0,0,5.864-.564c1.16-.167,2.314-.383,3.477-.511,2.159-.236,3.911,1.37,4.619,4.158A30.144,30.144,0,0,1-617.512-234.151ZM-638.9-265.566a22.7,22.7,0,0,0,9.668.446,42.833,42.833,0,0,0,14.865-5.651,55.82,55.82,0,0,0,6.738-4.569,1.2,1.2,0,0,0-.865-.413c-3.968-.774-7.944-1.51-11.9-2.331a2.413,2.413,0,0,0-2.176.529c-1.434,1.115-2.925,2.155-4.39,3.229C-630.86-271.463-634.762-268.6-638.9-265.566Zm-11.7,49.953a13.007,13.007,0,0,0-1.921-7.076,6.007,6.007,0,0,1-.5-5.728c.269-.706.561-1.4.86-2.1a68.475,68.475,0,0,0,2.967-6.745,1.44,1.44,0,0,0-.907-2,13.392,13.392,0,0,0-2.131-.769,7.811,7.811,0,0,1-5.427-4.425c-.752-1.51-1.614-2.965-2.467-4.52C-664.087-239.652-658.98-221.68-650.6-215.613Zm24.2-63.454a2.645,2.645,0,0,0-.476-.255c-3.891-.768-7.784-1.527-11.675-2.3a1.382,1.382,0,0,0-1.144.36c-3.6,2.641-7.194,5.291-10.81,7.911-.606.439-.591.739-.057,1.212a36.793,36.793,0,0,0,6.672,4.69,1.559,1.559,0,0,0,1.94-.182c2.234-1.688,4.509-3.321,6.766-4.979C-632.293-274.732-629.4-276.858-626.4-279.066Zm.279-3.68a3.852,3.852,0,0,0-.252-.558q-5.932-8.1-11.864-16.208a1.032,1.032,0,0,0-1.157-.43,35.809,35.809,0,0,0-6.774,1.82c-.906.326-.995.673-.422,1.433,1.979,2.629,4.094,5.183,5.8,7.98a8.756,8.756,0,0,0,7.217,4.576A74.833,74.833,0,0,1-626.121-282.746Zm41.693,20.054a28.587,28.587,0,0,0,9.762-4.963,16.6,16.6,0,0,0,6.4-9.258c.095-.4.374-.864.012-1.172-.314-.267-.709.076-1.047.214a64.264,64.264,0,0,1-6.318,2.543,8.164,8.164,0,0,0-6.123,6.044A62.105,62.105,0,0,1-584.429-262.692Zm-3.476-.764c1.5-3.588,2.895-6.928,4.285-10.272a1.294,1.294,0,0,0-.012-1q-2.236-5.466-4.484-10.926c-.238-.579-.51-.588-.839-.047a13.226,13.226,0,0,0-1.489,3.181C-592.358-275.894-590.586-269.758-587.905-263.456Zm-55.837-19.159-17.858-3.479a57.952,57.952,0,0,0,7.359,10.254.706.706,0,0,0,1.082.129C-650.121-277.949-647.074-280.174-643.742-282.615Zm62.235,3.839,2.362-5.63q2.173-5.18,4.342-10.363c.113-.27.338-.56.173-.85-.142-.25-.407-.094-.613-.014a33.132,33.132,0,0,0-10.079,5.8c-.308.271-.519.532-.337.972C-584.317-285.61-582.983-282.361-581.507-278.776Zm-79.5-10.765,17.916,3.492c-2.515-3.436-4.813-6.574-7.109-9.714a.611.611,0,0,0-.888-.169A58.387,58.387,0,0,0-661.012-289.541Zm89.916-5.06L-578-278.074c2.786-1.145,5.233-2.136,7.668-3.155,2.62-1.1,2.657-1.114,2.222-3.9A34.557,34.557,0,0,0-571.1-294.6Z" transform="translate(673.638 303.806)"/></svg>