<svg xmlns="http://www.w3.org/2000/svg" width="25.076" height="19.349" viewBox="0 0 25.076 19.349"><defs><style>.a{fill:#583d0d;}</style></defs><path class="a" d="M-68.273-802.811a61.688,61.688,0,0,1-8.673-.635,3.993,3.993,0,0,1-3.36-3.21,34.256,34.256,0,0,1-.476-5.829,34.368,34.368,0,0,1,.471-5.813,4,4,0,0,1,3.367-3.227,59.884,59.884,0,0,1,8.671-.635,61,61,0,0,1,8.671.635,4.007,4.007,0,0,1,3.365,3.208,33.878,33.878,0,0,1,.53,5.832,40.03,40.03,0,0,1-.528,5.81l0,.021a4.006,4.006,0,0,1-3.37,3.208A60.4,60.4,0,0,1-68.273-802.811Zm0-17a58.16,58.16,0,0,0-8.329.61,1.657,1.657,0,0,0-1.4,1.327,31.913,31.913,0,0,0-.434,5.393A32.111,32.111,0,0,0-78-807.074a1.649,1.649,0,0,0,1.39,1.306,59.113,59.113,0,0,0,8.338.612,58.1,58.1,0,0,0,8.326-.61,1.666,1.666,0,0,0,1.4-1.32,37.611,37.611,0,0,0,.49-5.428,31.268,31.268,0,0,0-.492-5.384,1.657,1.657,0,0,0-1.393-1.308A58.778,58.778,0,0,0-68.273-819.816Z" transform="translate(80.783 822.161)"/><g transform="translate(9.072 4.536)"><path class="a" d="M-75.742-809.948a1.177,1.177,0,0,1-.584-.155,1.173,1.173,0,0,1-.589-1.018v-7.935a1.17,1.17,0,0,1,.589-1.018,1.18,1.18,0,0,1,1.175,0l6.8,3.965a1.176,1.176,0,0,1,.582,1.016,1.167,1.167,0,0,1-.582,1.01l-6.8,3.97A1.189,1.189,0,0,1-75.742-809.948Zm1.172-7.067v3.853l3.3-1.925Z" transform="translate(76.914 820.227)"/></g></svg>